<?xml version="1.0" encoding="UTF-8"?>
<svg version="1.1" viewBox="0 0 900 900" width="225" height="225" xmlns="http://www.w3.org/2000/svg">
<path transform="translate(0)" d="m0 0h900v900h-900z" fill="#964E30"/>
<path transform="translate(400)" d="m0 0h500v900h-180l-3-9-3-13-1-4 4-5 7-2 5-4h2v-5l3-1v-2h2l2-6 4-3 1 1 6-15 3-7 7-24 5-21 3-3h2l-28-16-16-12-15-11-5-4v-2l-5-2-14-13-7-8-8-7-6-6v-11l5-33 5-19 1-6h2l1-5 9-17 5-4 14-6 8-1 3 3 5 14-2-12-3-10v-3h-2l-2-6-16-32-9-19-5-10-11-23-17-33-8-16-7-9-6-7-1-5-5-2-5-5h-2l8 7 9 11 8 10v2l-5 1h-19l4-2 1-4h9l-6-7-3-3 1-4-1 2h-3v3l-5 5-3 4-4-1-4-4v-3h-2l7 15 2 6 5-3 2 2 3-3 17-2 6-1 8 16 11 24 9 17 11 25 8 17 7 15-1 4-5-2-6-4-14-18-5-5-3-4v-2l-8-1-5 1-5-3-6-7-6-5-6-7-3-7-1-8-4-17-5-16 1 6 5 17 3 12v7l-8-3-3-3v-2l-3 1-21-2 1-35 2-17-5 1 4 1-3 26-2 3-6 2h-2l-9 6-15 4 9-1 13-5 8-4h3v20l-2 2-15 4-10 1h-14l1-5 6-21 6-18 4-14 13-1-12-1 1-7 7-30 3-15v-3l-11-12-9-7 1 2-1 9-3 4-2 4-14 14-4 1v2l-5 4-4 1-1 2h-3v2h-3v2l-6 3-7 5h-4v2l-5 3-8 3h-3v2l-15 5-22 6-24 4h-11l-12-2-33-11-16-6-25-12-14-10-6-7-6-12-9-27-4-9-5-17-4-8v2l4 9 1 12-3 3v7l-5 1v2l3 2-1 4-5-2v-3l-2-19-1-22 4-1 2 1-1-7h-3l-1-6v-8l4 4 3 13 2 4v2l5 8 10 4 1 4-1 2 15-2h28l15-3 12-4 11-6 8-7 14-35 4-5 7-4 10-1 6 3 7 7 11 18 2 3-1-5-6-7-7-12-6-7-2-1 1-4 9-6 5-8 8-2 4-2 6-1v3h-2v5l-5 6-1 3v19l3 14 5 12 3 5 10 6 10 3 8 1h32l2-4 1-7 3-5 6 1 7 5 4 5 5 1v-1h-2v-2l-4-2-3-8-5-5-1-5 3-7 5-1 3 1-1-5-1-4 3-2-1-8-2-12 7-1 4 7v11l3-5 1-4 5 1 4 4 3 7-1 4-1 5 1 3-1 10-4 7 1 1 5-8 2-5 2-18-4-9-8-7-10-6-20-8-10-3-8-1h-27l-17 4-7-1v-2l27-4 22-1-4-10-3-8-2-5v-4l5 1 3 5 4 10 4 2 1 6 2 1v2l5 2 2-4h3l1 7h2v2h2l-1-2v-8l32-1v5l-7 9h-8l-4 2 6 1 3-1 1 4 3-5h2l2-6 3-3 2-7 4-2 12-1 18 2 7 5 1 4-12 2 10-1 3 1 10 1 6 5 6 10v5l-1 1h-12l-1-3-3 1v2l-5-1-1 4h2l1 4 3-4 7-1h9l10 1 12 5 4 10 12 41 12 31 9 26 8 25 8 26 9 19 8 14 15 20-7-11-9-14-8-14-8-19-7-21-8-27-4-12-13-33-12-36-9-33-5-18v-4h2l-3-21-7-28-9-26-5-14-5-12-11-23-13-21-9-12v-2l-4-2-13-13-2-1v-2l-4-2-11-9-15-10-14-8-13-6-24-6-25-4-29-2-36-1 1-2h2l1-4 1-2h2v-2h7l-1-4-13-2-7-5 2-4z" fill="#AA7462"/>
<path transform="translate(0)" d="m0 0h364l-2 17-1 20-20 7-21 10-16 10h-3l-1 3-9 7-9 8-12 16-3 7-9 16-9 19-7 18-6 20-6 26-4 31-2 24v14l-4 12-12 29-7 16-5 15-5 12-5 17-2 15v8l3 11 6 12 4 4v2l4 2 1 4 3-1-1-6-2-8-1-13-2-22v-14l3-27 2-9 2 1-2 21-1 25 3 36 4 24h2l4 9 6 9 2 4h4l1 4 5 2h15l6-1 1 6-2 4h-13l-7-2-3-1 9 4 12 2v7l-4 13-3 18v17l-20 12-21 12-15 11-6 5-2 5v18h-2v2l-8 7-11 12-11 13-8 11-10 14-12 14-9 10-14 14-7 8-10 10-9 11-6 9-10 13-7 11v12l2 8 2 6v6l-3 4h-2l-2 6-20 30-2 4-1 8v16l2 21 2 23h-25z" fill="#98746C"/>
<path transform="translate(364)" d="m0 0h36l-3 4 1 3 5 3 9 1 4 2 2 4-5 1-3-1v2h-2l-1 4-3 3 35 1 29 2 30 5 21 6 11 5 16 9 14 10 10 8 4 3v2l4 2 18 18 12 18 10 17 9 19 6 16 5 12 9 28 6 24 2 11v10h-2l4 15 4 14 7 26 12 36 13 33 10 31 7 24 8 20 8 15 9 14 9 13-1 2-11-14-7-10-12-23-7-19-9-30-9-27-13-34-6-18-9-32-3-6-11-4-10-1h-9l-7 1-4 4v-5h-2l1-5 1 2h4l-1-3h4l1 2h12v-5l-5-8v-2l-4-2-2-2-10-1-6-1-9 1 2-2 3-1h9l-2-4-6-4-18-2-12 1-4 2-2 7-3 3-2 5h-2l-2 5h-3l1-4-3 2-6-1v-3l7-1 5 1 2-4 4-5 1-5-9 1h-23l1 10h-2v-2h-2l-3-4-7 1-1-4-3-1-1-6-4-2-5-13-2-2-4-1 5 16 3 5 1 6-3 1-28 2-10 2h-8v2h7l17-4h27l12 2 16 6 11 5 10 6 9 8 3 8-2 18-6 12-2 3-2-1v-3h2l3-11v-7l-1-3 2-4-1-5-3-6-3-3-4-1-1 5-3 5h-1v-13l-3-5h-5l-1 1 3 14v5l-3 2v3l2 2-1 4h-8l-2 7 1 5 2 4 3 1 3 8 3 2v2l5-1-3 3-5-1-6-7-8-4h-3l-3 6-1 7-1 3h-33l-12-2-10-4-8-6-6-13-3-10-1-7v-19l4-7 2-3v-6h-1l-8 4-6 1-5 8-9 6-2 2h-11l-7 3-6 5-5-10-3-7-4-5-9-4 8 6 1 5 5 2 3 6 1 7h2l-2 5-2-1v-8h-2l1 9h-2l1 8-6 16-5 10-6 5-10 6-9 3-15 1v-2l-3-1 20-3 12-5 8-6 5-10 3-8 1-6v-22l-5-8-10-6-9-3-5-1h-27l-18 4-19 9-7 6-2 6-1 5h-8l-4 3 1 3-3 8-1 12-3 1 1 6h2l1 9 1 34 2 21 4 35 6 36 5 25 3 16 3 7 4 14 4 10 7 17-1 3-5-5-8-16v-3h-2l-4-11-4-8-6-16-2-10h-2l-1-8h-2l-8-27-5-24-2-14-4-19-3-32-2-30v-52l3-40 3-20 5-22 8-27 5-13 13-32 11-19 9-10 6-7-10 8-9 12-10 19-8 20-1 5h-2l-1 7-1 3h-2l-2 9-8 27-4 17-5 34-3 44-1 29h-2v4l-2 1-2 7v3 3h-2l1 8h-3l1 7-2 11v10 2 10l1 4v17l-4 4-1-6 1-2-2-1 2-4-4-1-2-9v-2h2l-2-10-1-3-2-1-1-4-2-14-2-16v-25h-2v61l1 10 1 1v5l3 8 4 17 3 8v6h2l1 4-1 2 3 3 1 5h2v2h2l2 7 2 1v2h3v2h2l-1 4v1 3l-2 1 1 2-11 1-6-1v-3h-4l-8-11-4-8v-3h-2l-3-13-3-19-2-29 1-26 2-19-1 4-2 10-2 25v12l2 20 1 14 1 6h1l1 9-4-1-3-5-8-8-6-13-2-9v-8l2-15 6-20 5-13 7-18 9-21 9-22 2-9v-12l4-42 4-23 6-24 9-25 9-20 8-15 5-8 3-7 8-10 8-9 13-10 1-2 11-6 16-9 21-9 12-3v-20z" fill="#AA7462"/>
<path transform="translate(400)" d="m0 0h500v269h-243l-4-13v-4h2l-3-21-7-28-9-26-5-14-5-12-11-23-13-21-9-12v-2l-4-2-13-13-2-1v-2l-4-2-11-9-15-10-14-8-13-6-24-6-25-4-29-2-36-1 1-2h2l1-4 1-2h2v-2h7l-1-4-13-2-7-5 2-4z" fill="#BA8C87"/>
<path transform="translate(0)" d="m0 0h364l-2 17-1 20-20 7-21 10-16 10h-3l-1 3-9 7-9 8-12 16-9 14-10 19-9 23-3 5-5 19-6 26-4 30-3 25-1 9-4 1h-216z" fill="#BA8C87"/>
<path transform="translate(660,268)" d="m0 0h239l1 1v530h-24l-14 9h-7l-38-10-14-5-21-9 3-1 38 13 26 7h15l9-6 7-7 9-14 3-6v-12l-4-18-8-24-8-21-10-23-15-28-30-48-15-22-8-12-4-4-2-4-9-12-10-13-11-14-10-13-4-5-3-7-13-19-9-16-8-19-7-21-8-27-4-12-13-33-12-36-9-33v-5z" fill="#98746C"/>
<path transform="translate(499,44)" d="m0 0h2v2l5 1 7 6-3 1 4 4 5 2v2l4 1 2 4h2v2l4 2v2l3 1 5 6v2h2l4 7v2l4 1 11 18 8 14 1 1-4-8-1-6-1-4 8 8v4h2l4 7 4 5v3h2l2 6 4-1 1 4 2 4h2l3 4v3h3l2 8-1 4 2 4 3 3-3-6 2-1-1-2 1-2h-2l1-2 2 1v3l3 1 2 5 6 9 8 14 6 11 5 10v5 3l2 7 5 10 4 7 6 11 5 12 4 17 7 24 12 36 12 30 10 31 7 24 8 20 8 15 9 14 9 13-1 2-11-14-7-10-12-23-7-19-9-30-9-27-13-34-6-18-9-32-3-6-11-4-10-1h-9l-7 1-4 4v-5h-2l1-5 1 2h4l-1-3h4l1 2h12v-5l-5-8v-2l-4-2-2-2-10-1-6-1-9 1 2-2 3-1h9l-2-4-6-4-18-2-12 1-4 2-2 7-3 3-2 5h-2l-2 5h-3l1-4-3 2-6-1v-3l7-1 5 1 2-4 4-5 1-5-9 1h-23l1 10h-2v-2h-2l-3-4-7 1-1-4-3-1-1-6-4-2-5-13-2-2-5 1-10 1-1 1-25 5-8 2 2 17 1 4-10 1-1-3h-4l1 5-23 2h-17l-15 1-1-2-10-1v-1l8-1v-4l-4-12-7-3-18-3-20-2v-2l18 1 21 3-6-21-6-31-3-21-1-49-3 3-2 6h-2l-2 9-8 24-5 17-5 30-2 19-1 21-1 9h-1v-21l1-25 4-24 3-19 3-9 4-15 7-18 2-7 4-11 5-12h2v65l2 15 1 1 4 26 5 24 3 14h3l-2-1-1-9v-8l-1-7v-71l4-31h2l-2 32v12l1-8h1l2 31v21l3 2-1 5 2 8 7 16 8 14 8 8 4 6v2h2v-2l2 1v-4l2-3h2l-3-14-4-27-3-31-1-14v-28l3-17 2-15 2-1-1 21-1 18 4-1 3 12 2 13 3 11 4 18 4 12-1 2h2l1 3 2-6-1-4 4-3-1-5 2-5-2-2 2-4-1-2 2-15 1-26v-20l1-6 2 3 2 20 7 28 4 11v2h2v2l3-1 1 4v3h2l3 5 1 10 2 1 5 9 3 2 1-3h2l-2-12-9-51-1-7v-16l2 4 3 22 2 9 3 2h-3v2l3 1-1 1 3 1 1 3v2l1 4 3 10-1 2h2v4l3 1 1 8 1 4 3 1h-2l1 5 5-1 2-6-3-16v-21l-4-21-2-7-3-9-1-11-3-13 2-3 2 11v3l2 1-1 2 3 1h-2l2 4 1-7v-3l1 2h2v4l2 1h-2l6 15 2 7h2v4h4l2 10-1 3h3l-1 4 2 1v3l4 11 5 3 2 1 3 4-1-12-1-7 1-3-1-5h-2l1-5 1-2-2-3-1-6v-4l1-5h-2l-1-7-1-5-2-8 1-3-3-1-1-5-5-10-10-14-9-12-6-9-2-6-1-5z" fill="#964F31"/>
<path transform="translate(808,796)" d="m0 0 13 2 27 7 7 2h7l14-9 24 1v101h-180l-3-9-3-13-1-4 4-5 7-2 5-4h2v-5l3-1v-2h2l2-6 4-3 1 1 6-15 3-7 6-20h2l1-4 9-2 29-1 3-1h2z" fill="#BA8C87"/>
<path transform="translate(483,440)" d="m0 0 2 1v33l1 16 6 1 3 2v2l6 2 12 6 6 1-1 4-19 6-26 6-25 6 1 1 29-7 13-3h3l-1 4-13 5h-3v2l-23 10-13 6-13 5-13 6-27 7-11 2h-24l-17-5-16-8-5-3-6-13-4-9v-3h-2v-7l16-4 24-4 15-4 20-7 6-3h4l1 3h2l1-25 11-1v1l8 1 13-2 12-5 11-5 16-8h2v-2l6-2 4-2 1-3z" fill="#AA7462"/>
<path transform="translate(599,779)" d="m0 0h7l12 6 5 4 6 5v2l3 1 5 7 3 3 5 10 2-2 13 13 2 3 1 7 6 9v3l2 1-1 2 3 1v3h2l4 9 4 8 2 1-1 7 3 1 2 4 2 1 5 9 1 3h-122l-2-19v-22l5-21 9-26 10-27z" fill="#BA8C87"/>
<path transform="translate(333,256)" d="m0 0h27l12 3 9 5 5 5 4 6v22l-2 9-4 10-6 8-10 6-13 4-12 2v2l15-2 13-5 6-4h2l1-3 3-2 7-16 3-9v-8l1-4v-5h2l1 8 3-4h-2l-3-9-2-4-4-2-3-6-9-6 2-1 11 6 6 8 4 11h3l7-5 4-1h11l8 7 8 13 6 8 2 3-1 4-16-24-7-6-9-1-8 3-5 5-4 8-8 21-4 8-9 8-12 6-19 5-6 1h-28l-7 1h-8v-5l-10-4-6-9-1-2h2l-4-6-2-10-2-2v11h3l2 8-6-1 1 22 1 11v16l3 25 6 42 5 27 7-1 12-3h10l-3 2-9 3-16 4 1 12h-2l-9-46-5-35-2-20-2-21-1-43h-2l-1-6 2-1 1-12 3-9-1-3 5-2 1-2v2h7v-7l4-6 8-6 17-8z" fill="#27080F"/>
<path transform="translate(287,347)" d="m0 0 2 4 12 36-1 7h2l8 10 2 4v4l4-1 5 3v2l4 2 19 9v2l5 1 13 6 18 7 8 4 1 18v24h-2v2l-13 6-24 8-14 3-18 3-13 2h-5v-6l11-4 15-4 23-7-19 4h-3v-2l-2 1h-11l-3-2-17-4-1-1-1 5h-1l-1-8h2l-2-12 3-2 19-4 4-2h-7l-15 4-5-1-7-40-5-35-2-19v-15h1l1 7v3l4 2v-4l-3-2 1-3h5l-1-8 3-2z" fill="#964E30"/>
<path transform="translate(581,391)" d="m0 0 4 1 4 3v2l5 2 13 9 6 4-4 6-1 7v4l4-1 1-2v4l-2 3h3l2 6v2l2 2-4 1-5-5v-3h-2l7 15 2 6 5-3 2 2 3-3 17-2 6-1 8 16 11 24 9 17 11 25 8 17 7 15-1 4-5-2-6-4-14-18-5-5-3-4v-2l-8-1-5 1-5-3-6-7-6-5-6-7-3-7-1-8-4-17-5-16 1 6 5 17 3 12v7l-8-3-3-3v-2l-3 1-21-2 1-35 2-17-5 1 4 1-3 26-2 3-6 2h-2l-9 6-15 4 9-1 13-5 8-4h3v20l-2 2-15 4-10 1h-14l1-5 6-21 6-18 4-14 13-1-12-1 1-7 7-30 3-15z" fill="#974F32"/>
<path transform="translate(365,86)" d="m0 0h2v65l2 15 1 1 4 26 5 24 3 14h3l-2-1-1-9v-8l-1-7v-71l4-31h2l-2 32v12l1-8h1l2 31v21l3 2-1 5 2 8 7 16 8 14 8 8 4 6v2h2v-2l2 1v-4l2-3h2l-3-14-4-27-3-31-1-14v-28l3-17 2-15 2-1-1 21-1 18 4-1 3 12 2 13 3 11 4 18 4 12-1 2h2l1 3 2-6-1-4 4-3-1-5 2-5-2-2 2-4-1-2 2-15 1-26v-20l1-6 2 3 2 20 7 28 4 11v2h2v2l3-1 1 4v3h2l3 5 1 10 2 1 5 9 3 2 1-3h2l-1-4 5-1 4 13 3 8-1 1-10 1-1 1-25 5-8 2 2 17 1 4-10 1-1-3h-4l1 5-23 2h-17l-15 1-1-2-10-1v-1l8-1v-4l-4-12-7-3-18-3-20-2v-2l18 1 21 3-6-21-6-31-3-21-1-49-3 3-2 6h-2l-2 9-8 24-5 17-5 30-2 19-1 21-1 9h-1v-21l1-25 4-24 3-19 3-9 4-15 7-18 2-7 4-11z" fill="#964E31"/>
<path transform="translate(488,250)" d="m0 0h27l12 2 16 6 11 5 10 6 9 8 3 8-2 18-6 12-2 3-2-1v-3h2l3-11v-7l-1-3 2-4-1-5-3-6-3-3-4-1-1 5-3 5h-1v-13l-3-5h-5l-1 1 3 14v5l-3 2v3l2 2-1 4h-8l-2 7 1 5 2 4 3 1 3 8 3 2v2l5-1-3 3-5-1-6-7-8-4h-3l-3 6-1 7-1 3h-33l-12-2-10-4-8-6-6-13-3-10-1-7v-19l4-7 8-6 12-5z" fill="#15327C"/>
<path transform="translate(52,788)" d="m0 0 3 1 8 20 8 16 7 12 9 15 7 11 11 8 11 6 2 6 3 17h-94l-4-33v-27l2-10 4-8 9-13 13-20z" fill="#AA7462"/>
<path transform="translate(313,81)" d="m0 0v3l-12 12-9 15-8 16-10 26-4 10-8 27-6 26-3 29-2 27v52l3 43 2 19 5 23 2 16 7 29 5 16v3h-2l-6-17v-3l-3 3-6 15-4-3 1-2-7 2h-14l-5-2-1-2 3-1 8 1 4-2 3-1v-3l-2-1 2-1 1-3h-2v-2h-3v-2l-3-1-1-7h-2v-2h-2l-1-5-3-1-1-3 1-5h-2l-3-12-2-5-3-14-1-7-2-1v-5l-1-4-1-7 1-61h2l1 26 2 15v3l2 13 4 6 2 8-1 4h-2l2 9 4 1-1 4 1 3 1 5 2-5v-18l-1-3v-8-3-12l2-11-1-2 1-2h3l-1-2v-6h2v-3l-2-1 4-10h2l1-7 2-45 3-32 5-32 6-22 6-20 2-6h2l2-10h2l1-7 8-20 9-17 10-13z" fill="#964E30"/>
<path transform="translate(553,395)" d="m0 0 3 1v11l-1 9-1 2-6-1-3-2 4 4 4 2-1 12-9 48-3 13 5 2-3 3h-3v3l-9 2h-8l-13-5-13-7 3-1 10 2v1h19l-9-2-1-3h-10l-16-3-3-2-1-24v-3-13-3l1-4 19-10 5-3h2v-2l10-5 4-3h2v-2l9-5z" fill="#974F31"/>
<path transform="translate(280,327)" d="m0 0 4 3 5 13 3 11 5 12 5 15 4 10 7 14 8 7 13 8 24 11 13 5 27 9 11 3 7 1h11l24-4 22-6 13-4h2v-2l12-5 4-1v-2l7-3 7-5h3v-2h3v-2h3l1-3 5-2 4-2v-2l6-4 12-12 3-6 2-5h2l-1 9-3 20-7 44-5 24-3 16-2 5-2-2 3-12 10-54v-6l-5-3-3-2 1-2 5 3 4 1 2-22-4 1-13 12-5 3h-3v2l-13 8h-3v2l-10 6-16 8 1 5-1 1-1 10 2 1h-2l2 4-1 3 1 22 11 3 14 1 3 1 1 2 10 2-2 2h-19l-3-2-7-1 14 7 10 4h8l10-2-4 16-7 19-3 13 1 3-2 1-3 8h-3l4-16 1-7 5-11 6-18 2-4-21 6-17 5h-5l2-2 19-6h3l1-4h-6l-16-8-5-4-6-2-2-16v-33l-8 4-5 5-4 1h-2v2l-15 8-12 5-8 4-9 3-12 1-7-1-3-1-6 1-2 24-3 1-1-2 1-2-13 5-19 7-23 5-24 4h-8l4-3 13-2 28-5 16-5 12-4 11-5h2v-2h2l-2-42-25-10-15-7-3-1v-2l-9-3-11-6-3-2v-2l-7-2h-2l-3-8-7-8v-2h-2v-7l-12-36v-4h-2l-2-10-4-7z" fill="#642B20"/>
<path transform="translate(337,258)" d="m0 0h21l9 2 14 7 4 5 1 9h2l1 22-5 13-6 8-10 6-13 4-6 1h-8l-2-10 1-8-4-6-1-4 1-5 1-2-4-1-2-8-1-13-1-7 1-7-1-4z" fill="#15327C"/>
<path transform="translate(646,450)" d="m0 0h3l8 16 11 24 9 17 11 25 8 17 7 15-1 4-5-2-6-4-14-18-5-5-3-4v-2l-8-1-5 1-5-3-6-7-6-5-6-7-3-7-1-8-4-17-4-12v-3l26-2 3-1-28 1-4-2-1-4 4-2 2 2 3-3 17-2z" fill="#98746B"/>
<path transform="translate(365,86)" d="m0 0h2v65l2 15 1 1 4 26 5 24 3 14h3l-2-1-1-9v-8l-1-7v-71l4-31h2l-2 32v12l1-8h1l2 31v21l3 2-1 5 2 8 7 16 8 14 8 8 4 6v2h2v-2l2 1 1 3 7-1-1-6-3-10 1-2 4 9 3 5 3 1v-5l4 2 5 5v2l-23 2h-17l-15 1-1-2-10-1v-1l8-1v-4l-4-12-7-3-18-3-20-2v-2l18 1 21 3-6-21-6-31-3-21-1-49-3 3-2 6h-2l-2 9-8 24-5 17-5 30-2 19-1 21-1 9h-1v-21l1-25 4-24 3-19 3-9 4-15 7-18 2-7 4-11z" fill="#985134"/>
<path transform="translate(0,798)" d="m0 0h6l7 4 7-1 2 3-1 5-4 2v2l3 1 1 6-1 5 2 1-1 14v16l2 21 2 23h-25z" fill="#BA8C87"/>
<path transform="translate(265,453)" d="m0 0h2l6 17v3l2 1 4 13 7 18 3 8 1 5-7 3-5 1v4l-8 7h-21l-3-1-1-4 3-22 6-26 2-6-1-2 3-3 6-15zm10 17 2 2-1 3z" fill="#964E30"/>
<path transform="translate(639,807)" d="m0 0 4 5 2 5 2-2 13 13 2 3 1 7 6 9v3l2 1-1 2 3 1v3h2l4 9 4 8 2 1-1 7 3 1 2 4 2 1 5 9 1 3h-32l-4-13-3-9v-3h-2l-4-12-3-5-1-4 1-2h-2l-1-8v-14l-3-1-1-4 1-4-4-4-1-6z" fill="#AA7463"/>
<path transform="translate(377,256)" d="m0 0 6 2 8 5 5 7 4 11h3l7-5 4-1h11l8 7 8 13 6 8 2 3-1 4-16-24-7-6-9-1-8 3-5 5-4 8-8 21-4 8-9 8-12 6-19 5-6 1h-28l-7 1h-8v-5l-10-4-6-9-1-2h2l-1-3 2-2 7 1 1 2-5 1 1 4 7 1 5 2v2h22l2-3h5v4l7-1 1-5-1-3h-3v-10h-2l-5-8v-7l1-2-5-1 1-5h3v-5l1-5v-2l-8-1-4-8 3-3 7-3 3-1 1-3 2 3-1 12 2 10 1 13 5-1-1 4-1 5 1 4 4 6-1 8 1 10 2 1v2l15-2 13-5 6-4h2l1-3 3-2 7-16 3-9v-8l1-4v-5h2l1 8 3-4h-2l-3-9-2-4-4-2-3-6-9-6z" fill="#29182A"/>
<path transform="translate(558,369)" d="m0 0 5 2 4 3v2l4 2 11 12-3 2-8 36-10 36-8 24-4 5v-2l-3 2h-4l2-13 5-26 6-36 4-28 3-13h-2v-5z" fill="#964E31"/>
<path transform="translate(503,221)" d="m0 0 2 3 4 12 3 5 1 6-3 1-28 2-10 2h-8v2h4l-1 3-8 4h-3v-6h-1l-8 4-6 1-5 8-9 6-2 2h-14l5-5 6-9 3-5 12-2h11l-2-5 5-1 1 4 10-1-2-4-1-8v-9l13-4 20-4 1-1z" fill="#A97463"/>
<path transform="translate(546,265)" d="m0 0h5l4 7v11l3-5 1-4 5 1 4 4 3 7-1 4-1 5 1 3-1 10-4 7 1 1 5-8 2-5 1 4-2 9-2 3-4 1-10 6-4 1-4-1v-2l-4-2-3-8-5-5-1-5 3-7 5-1 3 1-1-5-1-4 3-2-1-8-2-12z" fill="#A97463"/>
<path transform="translate(454,144)" d="m0 0h2l9 24 8 19 11 25 3 6v4l-19 5-10 2-3-28z" fill="#AA7462"/>
<path transform="translate(560,377)" d="m0 0h2l-1 9-3 20-7 44-5 24-3 16-2 5-2-2 3-12 10-54v-6l-5-3-3-2 1-2 5 3 4 1 2-22-4 1-13 12-5 3h-3v2l-13 8h-3v2l-10 6-16 8 1 5-1 1-1 10 2 1h-2l2 4-1 3 1 22 11 3 14 1 3 1 1 2 10 2-2 2h-19l-3-2-7-1 14 7 10 4h8l10-2-4 16-7 19-3 13 1 3-2 1-3 8h-3l4-16 1-7 5-11 6-18 2-4-21 6-17 5h-5l2-2 19-6h3l1-4h-6l-16-8-5-4-6-2-2-16v-33l-9 5h-2v-4l5-3h2v-2l8-2v-2l12-5 4-1v-2l7-3 7-5h3v-2h3v-2h3l1-3 5-2 4-2v-2l6-4 12-12 3-6z" fill="#4A1B16"/>
<path transform="translate(582,256)" d="m0 0 3 1-4 6h-2v7l3 7h-2l1 7 8-1 1-5 2 1-1 4-4 4 1 6 5 10v15l-7 40h-4l-1-2-2 1h-6l1-3-3-1v-14l1-10v-3l2-12 3-11 2-12h2l-3-7-2-7-1-4v-2l-3 2-3-3-1-6 2 1v2l5-1v-4l4-2z" fill="#954E30"/>
<path transform="translate(493,251)" d="m0 0h30l18 6 13 6 10 6 9 8 3 8-2 18-6 12-2 3-2-1v-3h2l3-11v-7l-1-3 2-4-1-5-3-6-3-3-4-1-1 5-3 5h-1v-13l-3-5h-5l-1 1 3 14v5l-3 2v3l2 2-1 4h-8l-2 7 1 5 2 4 3 1 3 8 3 2v2l5-1-3 3-5-1-6-7-8-4 2-3-5-4-3-4 2-1 4 1-1-3-4-1-2-6-4-1 2-4 10-8 11-6-1-10-2-2-1-4-8-2-7-2-17-2-7-1h-13v-1z" fill="#284374"/>
<path transform="translate(287,347)" d="m0 0 2 4 12 36-1 7h2l8 10 1 6-15 1-11-6-7-6-3-25v-15h1l1 7v3l4 2v-4l-3-2 1-3h5l-1-8 3-2z" fill="#964F31"/>
<path transform="translate(280,327)" d="m0 0 4 3 5 13 3 11 5 12 5 15 4 10 7 14 8 7 13 8 24 11 13 5 27 9 11 3 7 1h11l24-4 16-4h5l-2 2h-3l-1 3-6 1-2-1-1 2-9 1-15 3h-22l-18-4-3-1 2 9 3 3v2h-3l-1 27-1 5-10 4-19 7-13 4-22 4-17 3h-8l4-3 13-2 28-5 16-5 12-4 11-5h2v-2h2l-2-42-25-10-15-7-3-1v-2l-9-3-11-6-3-2v-2l-7-2h-2l-3-8-7-8v-2h-2v-7l-12-36v-4h-2l-2-10-4-7z" fill="#3C1313"/>
<path transform="translate(384,475)" d="m0 0h4v14l-3 3-11 5-24 8-14 3-18 3-13 2h-5v-6l11-4 15-4 29-9 14-7 11-6z" fill="#AA7462"/>
<path transform="translate(621,418)" d="m0 0 4 1 7 6 3 3 3 5 10 12 8 15 11 23 10 19 10 21 8 17 8 16 10 21 3 4v5h2l2 5 2 8 2 9-1 4-5-12-3-5-8 1-6 1 3-3 9-2-3-9-5-12v-4h-2l-7-17-8-16-7-16-8-16-11-23-10-22-3-5v-2l-12 3-11 1 1 2-5 1-4-1-2 2-4-9-5-10v-3h2v3l4 2 1 2h3l6-8h2v-3h3l-1-3 3 1-1 5 5 4 4 6h-10l-1 3-2 1h22l-6-8-8-10-9-10z" fill="#974F31"/>
<path transform="translate(605,189)" d="m0 0h3l6 8v2h2l2 5 3 3 3 7 3 6v2h3v2h2l5 9 6 10v2h2l3 8 4 7 1 8h2l1 3v7l-2 1-9-4-6-7-4-11-1-5 2-1h-5v-3h-3v-4l-2-1 1-2h-2l-2-6 3-1-1-4h-5l1-3h-3v-9l-2 1-1-10v-2h-2l-2-4v-4h-2z" fill="#A9725F"/>
<path transform="translate(374)" d="m0 0h26l-3 4 1 3 5 3 9 1 4 2 2 4-5 1-3-1v2h-2l-1 4-3 3 9 1v1l-23 2-11 2h-5l-1-26z" fill="#AB7664"/>
<path transform="translate(559,750)" d="m0 0 5 1 3 5 11 7 8 5v2l6 2 6 3 13 4 9 6 1 2-5-2-10-5-7-1-2 8-10 28-10 30-3 14v22l1 8v11h-3l-8-42-5-24-7-44-2-28 2 1 2 11 2 20 7 40 6 25 5-19 5-13 3-11 5-12 3-8 4-13-1-5-5-5-7-3-8-5v-2l-4-2-7-5-3-4z" fill="#330E11"/>
<path transform="translate(629,219)" d="m0 0 4 4 7 11 6 9 7 14 5 12 4 17 7 24 12 36 12 30 10 31 7 24 8 20 8 15 9 14 9 13-1 2-11-14-7-10-12-23-7-19-9-30-9-27-13-34-6-18-9-32-3-6-11-4-10-1h-9l-7 1-4 4v-5h-2l1-5 1 2h4l-1-3h4l1 2h12v-5l-5-8v-2l-4-2-2-2-10-1-6-1-9 1 2-2 3-1h9v-4l5 1v3l5 1 9 6 5 9v2l3 1 4 5 9 4h1v-10h-2l-3-9-5-10v-4h-2l-6-11-5-7v-3h-2z" fill="#7A3A26"/>
<path transform="translate(220,713)" d="m0 0h14l7 3 3 2 2 4v10l-6 8-10 4-14 2v19l-2 4h-3v-8l3-20 1-14 2-12z" fill="#130709"/>
<path transform="translate(210,665)" d="m0 0h1v15l-10 34-4 25-2 15-4 50-3 39-2 19-7 28-4 10h-11l-10-5-11-5-13-5-9-5 3-1 20 8 13 5 12 6h2l5-16 4-18 3-21 3-32 6-60 4-30 5-21 6-20 2-13z" fill="#3B1212"/>
<path transform="translate(377,256)" d="m0 0 6 2 8 5 5 7 4 11h3l7-5 4-1h11l8 7 8 13 6 8 2 3-1 4-16-24-7-6-9-1-8 3-5 5-4 8-8 21-4 8-9 8-12 6-19 5-6 1h-28l-7 1h-8l1-6h41l18-3 13-5 6-4h2l1-3 3-2 7-16 3-9v-8l1-4v-5h2l1 8 3-4h-2l-3-9-2-4-4-2-3-6-9-6z" fill="#20131F"/>
<path transform="translate(504,220)" d="m0 0 5 1 3 5 4 10 4 2 1 6 2 1v2l5 2 2-4h3l1 7h2v2h2l-1-2v-8l32-1v5l-7 9h-8l-4 2 6 3-3 1-20-8-10-3-8-1h-27l-17 4-7-1v-2l27-4 22-1-4-10-3-8-2-5z" fill="#AA7563"/>
<path transform="translate(455,254)" d="m0 0 5 1-1 2h-2v5l-5 6-1 3v19l3 14 5 12 3 5 3 2-1 2-7-4-3-1-3-8-1-1v-8l-6-2-8-13-7-9-3-2 1-4 9-6 5-8 8-2 4-2z" fill="#B49691"/>
<path transform="translate(313,81)" d="m0 0v3l-12 12-9 15-8 16-10 26-4 10-8 27-6 26-3 29-2 27v52l3 43 2 19 2 9v12l-2-1-3-18-3-33-1-6-1-20-1-61 3-32 5-32 6-22 6-20 2-6h2l2-10h2l1-7 8-20 9-17 10-13z" fill="#964E30"/>
<path transform="translate(255,740)" d="m0 0h13l5 2 2 3v17l-6 6-6 2h-8l-8-4-3-5v-11l4-6 3-3z" fill="#13070A"/>
<path transform="translate(300,801)" d="m0 0h4l2 7 3-2h8l2 4 4-3 2-1h7l2 2 1 5v20l-2 2h-4v-23h-3l-2 4-5 8-2 13h-8v-6l2-7v-8h-5l-2 15-2 3h-8l1-13 3-14z" fill="#100709"/>
<path transform="translate(453,109)" d="m0 0 2 3 2 20 7 28 4 11v2h2v2l3-1 1 4v3h2l3 5 1 10 2 1 5 9 3 2 1-3h2l-1-4 5-1 4 13 3 8-1 1-10 1-1 1-25 5-8 2 2 17 1 4-4-1-1-22 27-7h3l-3-9-5-10-7-16-10-24-6-17-2-4-2-7v-20z" fill="#954F32"/>
<path transform="translate(663,692)" d="m0 0 4 5 4 3v2l4 2 7 7v2l4 2 6 7 8 7 5 3 5 5 16 12 18 13-2 1-16-10-9-6v-2h-3v-2l-5-2-9-7v-2l-4-2-5-6-7-6v-2h-3l-2-4-3-1-1 16-2 6h-1v-8l1-3-1-13-1-2-2 11-3 38h2v-7l2-6h1v8l-3 7-1 2-1 12h-1l-3-17-1-14v-34z" fill="#5B2115"/>
<path transform="translate(528,315)" d="m0 0 6 1 7 5 4 5 5 1 8-3 4-1 2 4v2l-7 6-4 1-4-1h-6v-2l-3 2-7 1h-32l-24-3-14-5-7-6 2-2 7 4 5 2 12 4 8 1h32l2-4 1-7z" fill="#9A746B"/>
<path transform="translate(395,802)" d="m0 0 5 1h15l3 4 5 11-1 20-3 3h-6v-23l-1-5h-7l-3 15-2 12-1 1h-8v-9l3-26z" fill="#110709"/>
<path transform="translate(589,477)" d="m0 0h3v20l-2 2-15 4-10 1h-14l1-5 4-14 1-2 4-1v3h-2v2l9-1 13-5z" fill="#A97362"/>
<path transform="translate(797,565)" d="m0 0 5 5 3 4v2l3 1 12 19 9 14 10 17 10 16 12 22 9 19 11 27 9 27 5 20v15l-7 11-10 13-5 4-11 7h-7l-38-10-14-5-21-9 3-1 38 13 26 7h15l9-6 7-7 9-14 3-6v-12l-4-18-8-24-8-21-10-23-15-28-30-48-15-22-5-7z" fill="#522624"/>
<path transform="translate(767,777)" d="m0 0 2 1h6l5 3 5 1-1 2 26 11 4 2-10 1-5 1-29 1-9 2-2 3 1-10 4-15z" fill="#987269"/>
<path transform="translate(345,711)" d="m0 0h22l-1 6-3 1h-14l-1 20 7-1 10 1 2 2-1 5h-15l-4-1-2 23-2 4-6 1 1-10 1-1 2-17h-10l-1-4 2-2h10l1-20z" fill="#16080A"/>
<path transform="translate(268,100)" d="m0 0v3l-10 18-9 19-7 18-6 20-6 26-4 31-2 24v14l-4 12-12 29-7 16-5 15-5 12-5 17-2 15v8l3 11 4 8-1 3-6-10-2-7-1-7v-10l6-25 9-25 16-38 6-14 2-10 2-30 4-32 5-26 6-21 3-9 5-11 7-17 10-19z" fill="#7B3B28"/>
<path transform="translate(384,187)" d="m0 0 2 1 3 20 8 16 7 11 9 11 3 4v2l-12 1-1 3-8-2v-2l-3-1-2-6-1-12-3-13-2-19z" fill="#AA7462"/>
<path transform="translate(379,742)" d="m0 0h13l8 3 1 4-2 11-21 1v3h12l7-1v5l-4 3h-14l-5-4-2-4v-11l4-7z" fill="#0E0608"/>
<path transform="translate(223,780)" d="m0 0 4 1 1 7-2 11h10l2 1 1 4v26l-7 1 1-23 1-4-5 5h-2l-2 6-1 12-2 4h-8l1-11 2-6v-9l6-1 1-2h-3v2h-2l1-16 1-7z" fill="#110709"/>
<path transform="translate(484,457)" d="m0 0h1l1 16 1-3v-8h2l1 22 11 3 14 1 3 1 1 2 10 2-2 2h-19l-3-2-7-1 14 7 10 4h8l10-2-4 16-7 19-3 13 1 3-2 1-3 8h-3l4-16 1-7 5-11 6-18 2-4-21 6-17 5h-5l2-2 19-6h3l1-4h-6l-16-8-5-4-6-2-2-16z" fill="#361113"/>
<path transform="translate(365,86)" d="m0 0h2v65l2 19h-2l-2-12-1-49-3 3-2 6h-2l-2 9-8 24-5 17-5 30-2 19-1 21-1 9h-1v-21l1-25 4-24 3-19 3-9 4-15 7-18 2-7 4-11z" fill="#3F1514"/>
<path transform="translate(378,255)" d="m0 0h14l1 3 17-2h15l-1 5-5 6-3 5-15 12-5-10-3-7-4-5-11-6z" fill="#B3948E"/>
<path transform="translate(371)" d="m0 0h3v32l16-3 23-2h26l29 2 30 5 21 6 11 5 16 9 14 10 10 8 4 3-1 2-8-6-14-10-9-5v-2l-5-1-15-8-13-5-16-4-20-2-9-1h-8l-12-2h-51l-12 2-10 2z" fill="#7D3D29"/>
<path transform="translate(256,477)" d="m0 0h3l1 5v11l1 7v17 3l-1 2 2 1-2 3 1 3 2 1-1 2h-16l-1-4 3-22 6-26z" fill="#AA7462"/>
<path transform="translate(610,413)" d="m0 0h5v2l5 1 7 7 10 11 6 8 4 5v2l-5 1h-19l4-2 1-4h9l-6-7-3-3 1-4-1 2h-3v3l-5 5-4 2-2-6v-3h-3l2-6-6 3-1-4 2-5v-4l2-1z" fill="#A9725F"/>
<path transform="translate(355,808)" d="m0 0h10l5 5 2 10 4 5v6l-2 2h-5l-5-5-1-3-7 7h-5l-2-4v-15z" fill="#110709"/>
<path transform="translate(599,779)" d="m0 0h7l12 6 5 4 6 5v2l3 1 1 3-5-1h-22l-11 1 1 9-3 3-2-2-2-1 3-10z" fill="#A97361"/>
<path transform="translate(292,487)" d="m0 0 13 4 9 2v2l13-1v2l21-5 4 1-26 8-21 6-5 1 1 4-1 2 3 1 3 2h-3v7h2l6 15 4 8-1 2-2-4h-2l-8-20-3-7-2-7-4-12-1-2z" fill="#642B1F"/>
<path transform="translate(493,251)" d="m0 0h30l18 6 13 6 10 6 9 8 3 8-2 18-6 12-2 3-2-1v-3h2l3-11v-7l-1-3 2-4-1-5-3-6-3-3-4-1-1 5-3 5h-1v-13l-3-5-14-7-6-1-7-2-17-2-7-1h-13v-1z" fill="#180C12"/>
<path transform="translate(473,722)" d="m0 0h5v8l-2 11 11 1 2 4-2 4h-8l-2-4h-2l-2 10h2l-1 7h-2v9l-1 1h-8l1-7 2-3 2-15h-12v-6l1-1 12-1 2-15z" fill="#130709"/>
<path transform="translate(361,253)" d="m0 0 8 1-1 2 5 2h7l8 6 1 5 5 2 3 6 1 7h2l-2 5-2-1v-8h-2l1 9h-2l1 8-6 16-5 10-6 5-10 6-9 3-15 1v-2l-3-1 20-3 12-5 8-6 5-10 3-8 1-6v-22l-5-8-10-6-9-3-5-1-26-1v-1l11-1h16z" fill="#95736C"/>
<path transform="translate(229,471)" d="m0 0 5 2 7 2h13l3-2-1 5-4 15-3 13-3 22v4h24l6-6h2v-4l7-3 5-1-3-7-2-6-10-26-1-5 2-1 1 5h2l5 16 5 12 5 11 1 6h2l7 15 3 5-1 3-7-10-4-8-3-7-3-1-10 9-7 5-22 1-9 3-4 1 3-3 4-2v-17l3-18 4-13 1-7h-9l-10-4z" fill="#703323"/>
<path transform="translate(899,748)" d="m0 0h1v51h-21l-2-2 8-10 9-14v-19l2-5z" fill="#98746B"/>
<path transform="translate(43,796)" d="m0 0v3l-7 11-12 18-2 2v-4l-3-1 1-9-3-3v-2l4-3v-5l-3-1-6 1-6-4h-5l-1-2h40z" fill="#AB7563"/>
<path transform="translate(271,320)" d="m0 0 1 3h5l-3 2 1 22 1 11v16l3 25 6 42 5 27 7-1 12-3h10l-3 2-9 3-16 4 1 12h-2l-9-46-5-35-2-20-2-21z" fill="#5C2317"/>
<path transform="translate(663,480)" d="m0 0 3 1 11 21 10 21 8 17 8 16 10 21 3 4v5h2l2 5 2 8 2 9-1 4-5-12-3-5-8 1-6 1 3-3 9-2-3-9-5-12v-4h-2l-7-17-8-16-7-16-8-16-10-21z" fill="#3A1213"/>
<path transform="translate(382,150)" d="m0 0h1v35l1 14 1 2 2 19 3 13v12l-2-3-3-6-10-3-24-3-10-1v-2l18 1 21 3-6-21-6-31-1-9h2l1-3 4 26 5 24 3 14h3l-2-1-1-9v-8l-1-7v-55z" fill="#954E31"/>
<path transform="translate(204,332)" d="m0 0 2 1-2 21-1 25 3 36 4 24h2l4 9 6 9 2 4h4v3l-4 1-5-2-2-7-5-8-6-10-5-5-7-8-2-5 5 4v2l4 2 1 4 3-1-1-6-2-8-1-13-2-22v-14l3-27z" fill="#8B462D"/>
<path transform="translate(333,256)" d="m0 0h27l12 3 9 5 5 5 4 6v22h-2v-16h-2l-2-9-5-5-8-4-7-3-6-1h-21l-8 2-1 2-16 7-11 4-6 3h-5l6-8 19-9z" fill="#0D070A"/>
<path transform="translate(268,318)" d="m0 0 1 2h2l1 9 1 34 2 21 4 35 4 25v5l-4-8 1-2-4-2-1-4 3-1-4-8 2-1-2-26v-3l-5 2-3 1-1-2 4-7 2 1 1-4v-4h-2v-4-7l-1-2 1-3-1-12-2-3 1-3-2-3 1-5-2-1-1-8 1-9z" fill="#974F31"/>
<path transform="translate(366,485)" d="m0 0 4 1-2 3-14 7-8 1-2-1-2 4h-5v2l-2 1 7 1-1 3-23 4-13 2h-5v-6l11-4 15-4 29-9z" fill="#9A7166"/>
<path transform="translate(278,387)" d="m0 0 6 2 7 3 8 2 5 3 6 7 1 6-15 1-11-6-7-6z" fill="#AA7462"/>
<path transform="translate(315,147)" d="m0 0h1v13l-3 15-2 22-3 14-5 35-3 19-1 2h-2v-12l2-17 4-28 4-21 4-30h1l2-10z" fill="#793926"/>
<path transform="translate(275,801)" d="m0 0 5 1-3 11-1 20-1 1-17-1-2-1-2-6v-17l2-5 4-1v25l6-3 4-15 3-7z" fill="#120709"/>
<path transform="translate(668,312)" d="m0 0 3 4 10 30 12 30 10 31 7 24 8 20 8 15 9 14 9 13-1 2-11-14-7-10-12-23-7-19-9-30-9-27-13-34-6-18z" fill="#391417"/>
<path transform="translate(546,265)" d="m0 0h5l4 7v13l-1 1-1 12-2 7-1 7h-2l-2-6h-2l-1 4 2 1 2 3-8-1-4-5 1-7 2-4 5-1 3 1-1-5-1-4 3-2-1-8-2-12z" fill="#99746C"/>
<path transform="translate(120,880)" d="m0 0 4 1 15 7 11 4 14 7v1h-41z" fill="#AB7563"/>
<path transform="translate(426,740)" d="m0 0h8l7 3v3l-12 1-5 6-1 2v8l2 3h11l5-2h3l-1 4-8 6-2 1h-8l-8-6-2-5v-10l4-8z" fill="#12070A"/>
<path transform="translate(559,750)" d="m0 0 5 1 3 5 11 7 8 5v2l6 2 6 3 13 4 9 6 1 2-5-2-10-5-7-1-2 8-10 28-8 23-3 4-4 15-1 7h-2l2-14 7-21 4-13 5-12 3-8 4-13-1-5-5-5-7-3-8-5v-2l-4-2-7-5-3-4z" fill="#5B2216"/>
<path transform="translate(574,77)" d="m0 0 4 2 18 18 12 18 10 17 9 19 6 16 5 12 9 28 6 24 2 11v10h-2l-2-10-2-14-4-18-3-9-3-7-4-13-8-23-9-19-6-11-7-12-12-17-11-13-8-8z" fill="#964E30"/>
<path transform="translate(579,390)" d="m0 0 2 2-3 15-9 37h15l-3 2h-13l-2 9-5 17-7 22-3 10h21l-1 2-20 1-3 1-6 15-3 3 1-7 4-9 6-16 10-30 8-28 6-26 4-18z" fill="#5D2317"/>
<path transform="translate(334,96)" d="m0 0h2l-1 5-7 24-6 25-1 4-1 15v32l1 1 4 24 4 16v5l-2-2-5-16-3-15-2-12-1-12v-25l2-16 1-1 2-10 3-13 4-13 3-7 2-8z" fill="#7C3B25"/>
<path transform="translate(604,272)" d="m0 0 2 1-2 4-1 12 11-6 1-6 3 4 3 6 2 5 3 2 2 5 4 5 4 4-6-1-6-7-5-2-1 4-3 1-4-2h-6l-4-6-1-13 2-9z" fill="#914B2F"/>
<path transform="translate(49,751)" d="m0 0 1 3-1 2v7l2 6 2 10 4 11-1 3-2-4-3 1-10 16-14 21-2 6-1 7v27l3 23v10h-2l-1-2-3-27-1-15v-16l2-10 10-16 7-10 5-7 2-5 4-4-1-9-2-5-1-6v-12z" fill="#7B3B27"/>
<path transform="translate(539,716)" d="m0 0 1 3-11 26-12 30-6 17-16 49-4 18-3 3 1-10 5-21 12-35 10-29 16-37z" fill="#592015"/>
<path transform="translate(274,324)" d="m0 0 4 1 2 1 6 14 1 12-3 3v7l-5 1v2l3 2-1 4-5-2v-3l-2-19-1-22z" fill="#A9715F"/>
<path transform="translate(452,317)" d="m0 0 5 5 8 6 12 4 24 3h32l7-1 3-1v2l9 1 2 4h-30v11h-4v-2h2l-2-9-35-3-15-3-10-4-7-6z" fill="#291C2F"/>
<path transform="translate(377,256)" d="m0 0 6 2 8 5 5 7 4 11h3l7-5 4-1h11l8 7 8 13 6 8 2 3-1 4-16-24-7-6-9-1-8 3-5 5-4 8-2 3-2 1-3 10-3 2 3-10 1-7v-5l1-4v-5h2l1 8 3-4h-2l-3-9-2-4-4-2-3-6-9-6z" fill="#2D1F32"/>
<path transform="translate(504,220)" d="m0 0 5 1 3 5 4 10 4 2 1 6 2 1v2l2 1-1 3 3 1-12-1h-27l-17 4-7-1v-2l27-4 22-1-4-10-3-8-2-5z" fill="#A17569"/>
<path transform="translate(284,320)" d="m0 0 7 1 1 2-5 1 1 4 7 1 5 2v2l10 2h30l3 1v2l3 1-6 1h-42l-10-4-6-9-1-2h2l-1-3z" fill="#294170"/>
<path transform="translate(293,738)" d="m0 0 5 1v9l12-5 8-3h5l-1 4-5 4-12 3-5 4-6 12h-6v-9l2-4 2-15z" fill="#110709"/>
<path transform="translate(329,260)" d="m0 0h7l3 1 1 9v8l1 14v7l-6 1-2-1-2-8-1-13-1-7 1-7z" fill="#284374"/>
<path transform="translate(437,255)" d="m0 0h14v3l-10 2-5 8-9 6-2 2h-14l5-5 6-9 3-5z" fill="#A97767"/>
<path transform="translate(894,762)" d="m0 0h1v11l-7 11-10 13-5 4-11 7h-7l-38-10-14-5-21-9 3-1 38 13 26 7h15l9-6 7-7 9-14 4-8z" fill="#291117"/>
<path transform="translate(289,519)" d="m0 0 4 2 9 18 1 5-5-1-12-5-13-4 1-3 8-6z" fill="#AA7461"/>
<path transform="translate(210,665)" d="m0 0h1v15l-10 34-4 25-2 15-3 35-3 1v-11l5-45 4-23 9-31 2-13z" fill="#5C2216"/>
<path transform="translate(220,259)" d="m0 0h1v14l-3 12-1 2-3-1v-16h-214v-1l220-1z" fill="#AB7563"/>
<path transform="translate(280,327)" d="m0 0 4 3 5 13 3 11 5 12 5 15 4 10 7 14 8 7 13 8 6 3-1 2-5-2-10-5-3-2v-2l-7-2h-2l-3-8-7-8v-2h-2v-7l-12-36v-4h-2l-2-10-4-7z" fill="#441815"/>
<path transform="translate(221,269)" d="m0 0 1 2h2l-3 12-8 19-12 28-5 15-5 12-5 17-2 15v8l3 11 4 8-1 3-6-10-2-7-1-7v-10l6-25 9-25 16-38 6-14z" fill="#5C2419"/>
<path transform="translate(470,446)" d="m0 0 2 1-5 4h-2v2l-15 8-12 5-7 2-2-7 1-7 4-1 1 1 11-1 9-2 7-1z" fill="#662C20"/>
<path transform="translate(569,194)" d="m0 0 2 3v5h2l1 8 3 10h-2v8l-1 2 4-1 4 8h-4l-9 2-2-22v-6l-1-2-1-14 2 1h1z" fill="#A97260"/>
<path transform="translate(476,438)" d="m0 0 4 1-5 5h-2v2l2 1-6 4-1-2 2-2-10 5h-8l-6 2-14 1-1-1-1 7 1 2v6l-4 1-2-3v-4h-2l1-5-1-4 1-2 17-2 12-3 9-1 4-1 1-2 3-1-1-2z" fill="#974F31"/>
<path transform="translate(747,837)" d="m0 0 1 4-5 11-4 5-1 3h-2v3l-4 2-3 1-2 4-1 1 2 1 1 5h-3l-1 3-3 3-1 3-5 1-2-9-1-4 4-5 7-2 5-4h2v-5l3-1v-2h2l2-6 4-3 1 1z" fill="#AB7563"/>
<path transform="translate(669,533)" d="m0 0h7l7 4v6l3 2 4 3h2l4 6-1 3 4 2 3 3 1 6-5-1-8-6-12-16-5-5-4-5z" fill="#AA7361"/>
<path transform="translate(646,450)" d="m0 0h3l7 14-1 3-3-3-5-1 3-2-28 1-4-2-1-4 4-2 2 2 3-3 17-2z" fill="#AA7462"/>
<path transform="translate(595,443)" d="m0 0 3 1-2 17-1 29-1 6h15l9 1 3 5-11-3h-11l-9 1 1-3 1-20-19 8-9 3h-7l2-2 15-4 11-7h2l6-3v-10l3-16-5-1z" fill="#824029"/>
<path transform="translate(559,274)" d="m0 0 5 1 4 4 3 7-1 4-1 5 1 4-2 1v-2l-5 3v-3l-5-2 1-3 5-1-1-2-2 1v-2h-2l-2 4-4 5-1-4 1-8 5-8z" fill="#AA7563"/>
<path transform="translate(364)" d="m0 0h3l-2 17v18l4 10v3h3v-8l2 1v3l2 1-2 9-2 5-1 6h-1v-13l-4-5v-3h-2l-1-5-12 3-13 5-18 9-3-1 15-8 20-8 9-2v-20z" fill="#6C2F1F"/>
<path transform="translate(278,285)" d="m0 0 1 2h6l-3 12-2 3v9l-2 2-3-6v11h3l2 8-3-1v-2h-5v-3h-3l-1-6 2-1 1-12 3-9-1-3 5-2z" fill="#30253A"/>
<path transform="translate(503,221)" d="m0 0 2 3 4 12 2 4v6h-9l-7-14-4-5 1-4 1-1z" fill="#954E31"/>
<path transform="translate(299,180)" d="m0 0h1l-1 17-4 33-5 25-2 5-2 13h-2l-2 7h3v2h-2l-1 5h-3l-1-4 4-10 7-31 6-39 3-22z" fill="#974F31"/>
<path transform="translate(371)" d="m0 0h3v32l16-3 23-2h26l29 2 17 3v1l-14-1-22-2h-44l-12 1-12 2-10 2z" fill="#6C2F20"/>
<path transform="translate(455,305)" d="m0 0 10 2 3 3 1 3 6 2 1 1v11l7 1v1h-8l-10-5-5-4-5-10z" fill="#291B30"/>
<path transform="translate(496,491)" d="m0 0 13 2v1h18l12 1v7l-9 2h-8l-13-5-13-7z" fill="#A7705C"/>
<path transform="translate(660,268)" d="m0 0h239v3l-227-1v2h-4v-2h-9l-1 2v-3z" fill="#AB7563"/>
<path transform="translate(216,309)" d="m0 0h2l1 26 2 15v3l2 13 4 6 2 8-1 4h-2l2 9 4 1-1 4 1 3-2 3-3-7-5-21-3-18-1-12-1 11h-1z" fill="#974F31"/>
<path transform="translate(219,463)" d="m0 0 9 1 6 3h15l6-1 1 6-2 4h-13l-7-2-5-2-6-4z" fill="#AA7462"/>
<path transform="translate(557,390)" d="m0 0h2v9l-8 51-5 24-3 16-2 5-2-2 3-12 10-54v-6l-5-3-3-2 1-2 5 3 4 1 2-22-4 1-8 7-1-2 8-7z" fill="#5C2216"/>
<path transform="translate(248,273)" d="m0 0h1l1 46 1 5 3 43 2 19 2 9v12l-2-1-3-18-3-33-1-6-1-20z" fill="#692F22"/>
<path transform="translate(387,298)" d="m0 0 1 3-2 10-5 10-7 6-11 5-8 2h-6v-2l12-3 8-4 5-3-1-6 7-11 5-4z" fill="#291C31"/>
<path transform="translate(559,289)" d="m0 0h4l1 3-5 2-1 2 5 1 1 3 4-2 2 1-1 9-3 2h-4l-1 3-8 1-1-3 1-5 2-4-1-1 1-7z" fill="#98746B"/>
<path transform="translate(428,236)" d="m0 0 3 3 4 10 4 2v-5l4 2 5 5v2l-23 2h-17l-15 1-1-2-10-1v-1l8-1v-4l1-4 2 6 2 1v2l8 1v-3l13 1 4 1h12l-1-6-3-10z" fill="#7F3E29"/>
<path transform="translate(484,457)" d="m0 0h1l1 16 1-3v-8h2l1 22 11 3 14 1 3 1 1 2 10 2-2 2h-19l-3-2-10-1-6-4h-3l-2-14z" fill="#703424"/>
<path transform="translate(271,320)" d="m0 0 1 3h5l-3 2 1 22 1 11v16l3 25 2 14v11l-2-1-3-19-2-20-2-21z" fill="#5C2216"/>
<path transform="translate(220,722)" d="m0 0h12l6 2v8l-5 4-13 1z" fill="#954D30"/>
<path transform="translate(453,109)" d="m0 0 2 3 2 20 7 28 8 20 3 6-1 3-3-5-9-21-6-17-2-4-2-7v-20z" fill="#391112"/>
<path transform="translate(550,762)" d="m0 0 2 1 2 11 2 20 7 40 2 7v5l-1 2v6l-2-4-6-33-4-27z" fill="#572016"/>
<path transform="translate(367)" d="m0 0h4l1 34-2 1h-6v-18l2-15z" fill="#AB7563"/>
<path transform="translate(270,228)" d="m0 0 2 1 4 36v15l-2 8-3 2-1-8v-3h2v-2l-3-1 3-7-3-1 1-4z" fill="#974F31"/>
<path transform="translate(217,336)" d="m0 0h1l2 24 5 25 6 21 8 21-1 3-6-12-7-17-6-25-2-18z" fill="#642B20"/>
<path transform="translate(361,253)" d="m0 0 8 1-1 2 5 2h7l8 6 1 5 5 2 3 6 1 7h2l-2 5-2-1v-8h-3v-4l-4-1-5-8-10-6-9-3-5-1-26-1v-1l11-1h16z" fill="#AC857D"/>
<path transform="translate(629,219)" d="m0 0 4 4 7 11 6 9 7 14 5 12 4 17 7 24-1 3-2-4-7-23-2-5-2-13h-2l-3-9-5-10v-4h-2l-6-11-5-7v-3h-2z" fill="#61271B"/>
<path transform="translate(525,310)" d="m0 0 6 3v2l-3 1-3 6-1 7-1 3h-33v-1l19-1 4-2 3-7 4-4 2-1v-5z" fill="#294474"/>
<path transform="translate(381,493)" d="m0 0 3 1-4 3-19 7-13 4-22 4-17 3h-8l4-3 13-2 28-5 16-5 12-4z" fill="#401C1F"/>
<path transform="translate(559,750)" d="m0 0 5 1 3 5 11 7 8 5v2l6 2 6 3 13 4 9 6 1 2-5-2-10-5-7-1-2 4-1-3h-2l-6-7-7-3-8-5v-2l-4-2-7-5-3-4z" fill="#320D10"/>
<path transform="translate(258,408)" d="m0 0 2 2 9 41 6 19v3h-2l-6-17v-3l-3 3-4 10h-1v-6l2-10 3-1-2-12-4-21z" fill="#5B2217"/>
<path transform="translate(275,473)" d="m0 0 2 2v3h2l5 16 5 12 5 11 1 6h2l7 15 3 5-1 3-7-10-4-8-3-7-6-2 4-1-3-7-2-6-10-26-1-5z" fill="#733422"/>
<path transform="translate(670,796)" d="m0 0 3 3 6 23 4 9 7 14 7 12 11 12 1 2-6-2-8-8-6-10-9-19-6-18-4-15z" fill="#5E2419"/>
<path transform="translate(204,332)" d="m0 0 2 1-2 21-1 25 1 12-2 5v8h-1l-2-22v-14l3-27z" fill="#934C2F"/>
<path transform="translate(646,822)" d="m0 0 2 2 4 16 5 22 8 25 3 8v5h-3l-4-13-6-20-6-27-3-15z" fill="#86432B"/>
<path transform="translate(396,296)" d="m0 0h1l-1 8-8 19-10 9-12 6-6 1v-2l-2-1 13-5 6-4h2l1-3 3-2 5-11 3-2 3-10z" fill="#1F121D"/>
<path transform="translate(333,256)" d="m0 0h27l12 3 9 5 5 5 4 6v22h-2v-16h-2l-2-9-5-5-8-4-7-3-10-2-21-1z" fill="#29223B"/>
<path transform="translate(294,491)" d="m0 0 7 1 12 4 11 1-2 2-17 4-6 1-2-4 1-3-5 1-1-5z" fill="#954E30"/>
<path transform="translate(539,501)" d="m0 0 1 2-8 26-4 11-2 9 1 3-2 1-3 8h-3l4-16 1-7 5-11 6-18 2-4-6 2h-5l1-3z" fill="#5C2317"/>
<path transform="translate(579,390)" d="m0 0 2 2-3 15-9 37h15l-3 2h-13l-2 9-1 5-3-1 11-44 5-23z" fill="#5D2418"/>
<path transform="translate(392,462)" d="m0 0 6 2 14 6 9 2v1l-12 1-7-1-3-1-6 1-2 24-3 1-1-2 1-2-2-1h4l1-30z" fill="#974F31"/>
<path transform="translate(634,513)" d="m0 0 5 3 4 5 10 10 5 1 7-1 4 2 5 7 5 5 10 13-1 3-4-4v-2h-2l-15-20h-19v-5l-8-8v-2l-4-2z" fill="#5D2317"/>
<path transform="translate(574,77)" d="m0 0 4 2 18 18 12 18 10 17 6 13v2h-2l-4-8-6-11-7-12-12-17-11-13-8-8z" fill="#763826"/>
<path transform="translate(406,860)" d="m0 0h33l3 1v17l-2 15-3 4h-8l-3-1 2-5 3 2h6l2-9v-20l-13-1h-22v-2z" fill="#5A2115"/>
<path transform="translate(668,312)" d="m0 0 3 4 10 30 12 30 4 12v5l-3-3-9-26-10-26-6-18z" fill="#371619"/>
<path transform="translate(685,716)" d="m0 0 7 6 8 7 5 3 5 5 16 12 18 13-2 1-16-10-9-6v-2h-3v-2l-5-2-9-7v-2l-4-2-5-6-7-6z" fill="#501D16"/>
<path transform="translate(340,158)" d="m0 0 3 4-2 13-3 15-3 27-1 21-1 9h-1v-21l1-25 4-24z" fill="#582116"/>
<path transform="translate(457,320)" d="m0 0 8 4 5 2 12 4 22 2 7 2-3 2-18-1-16-3-11-4-7-6z" fill="#9B776F"/>
<path transform="translate(596,472)" d="m0 0 5 1 2 5 1 7 1 2-2 2v-2h-2l1 7-4 2h-4l1-23z" fill="#AA7462"/>
<path transform="translate(607,335)" d="m0 0 3 2 5 13 9 17v5h2l5 12 4 16-1 3-8-21-5-12-8-17-5-15z" fill="#7A3A27"/>
<path transform="translate(236,801)" d="m0 0h2l1 3v26l-7 1 1-23z" fill="#0D0508"/>
<path transform="translate(384,216)" d="m0 0h2l3 15 1 2v12l-2-3-3-6-10-3-24-3-10-1v-2l18 1 21 3 6 1-2-11z" fill="#6B2F20"/>
<path transform="translate(391,209)" d="m0 0 2 3 4 5 7 13 6 9 9 10 1 4h2v-2l2 1v3h-7l-1-1-10-1v-1h10l-8-11-8-10-9-17z" fill="#8A462C"/>
<path transform="translate(272,753)" d="m0 0 1 4-4 5-4 2h-9l-6-4-1-5 4-1 3 1h14z" fill="#934D32"/>
<path transform="translate(541,333)" d="m0 0h2v2l9 1 2 4h-30v11h-4v-2h2l-2-9-15-1v-1l7-1 19-1 9-2z" fill="#341014"/>
<path transform="translate(305,201)" d="m0 0h1v9l-3 19-1 13 1 4-3 19-1 2h-2v-12l2-17 4-28z" fill="#974F31"/>
<path transform="translate(635,205)" d="m0 0 3 2 8 20 2 8v10l3 5v2h2l1 6-4-4-7-14-2-5 2 1v2l2-1-1-3-3-1-2-14-4-11z" fill="#974F31"/>
<path transform="translate(782,783)" d="m0 0 6 1 35 12 26 7-3 2-14-3-24-7-26-11z" fill="#2C1317"/>
<path transform="translate(559,323)" d="m0 0 4 1 1 5-7 6-4 1-8-1-1-3h-2v-2l14-5z" fill="#B69691"/>
<path transform="translate(319,160)" d="m0 0h1v41l1 1 4 24 4 16v5l-2-2-5-16-3-15-2-12 1-34z" fill="#88442C"/>
<path transform="translate(663,692)" d="m0 0 4 5 1 1v12l-2 14h-3l-1-1v-26z" fill="#2D0B0F"/>
<path transform="translate(320,503)" d="m0 0 4 1 5-1 3 1v2l3 1v1l-17 3-13 2h-5v-6l3-1 6 2h3l-2-2 4-1h6z" fill="#A97361"/>
<path transform="translate(615,285)" d="m0 0 4 2 2 3v3h2v4l-12 1-6-3v-3l7-6z" fill="#AB7563"/>
<path transform="translate(539,716)" d="m0 0 1 3-11 26-12 30h-3l3-10 15-35z" fill="#5B2116"/>
<path transform="translate(621,418)" d="m0 0 4 1 7 6 3 3 3 5 10 12 8 15 9 20-3-1-10-22-3-5v-2l-3 1h-11v-1l12-1-6-8-8-10-9-10z" fill="#753725"/>
<path transform="translate(493,251)" d="m0 0h30l18 6 2 2-4 1-8-2-7-2-17-2-7-1h-13v-1z" fill="#281E35"/>
<path transform="translate(268,100)" d="m0 0v3l-10 18-9 19-7 18-7 22h-1l1-9 3-12 4-8 10-24 10-19z" fill="#4C1C17"/>
<path transform="translate(137,647)" d="m0 0v3l-8 11-10 11-9 11-31 31v-3l15-15 7-8 15-15 9-11 8-10z" fill="#632A1E"/>
<path transform="translate(121,879)" d="m0 0 6 1 14 6 14 5 14 7h2l2-5 2 3-2 4h-9l-10-5-11-5-13-5-9-5z" fill="#5C2216"/>
<path transform="translate(501,218)" d="m0 0h2l1 3-1 1-10 1-1 1-25 5-8 2 2 17 1 4-4-1-1-22 27-7h4v-2h13z" fill="#53211A"/>
<path transform="translate(469,173)" d="m0 0 1 2 3-1 1 4v3h2l3 5 1 11 8 18 1 5-2 2-3-9-5-10-6-13 1-4-5-10z" fill="#743625"/>
<path transform="translate(526,319)" d="m0 0 2 4 1 4-1 3-2 1 9 2-2 1v2h-25l-1-2-3-2 18-1 2-4 1-7z" fill="#A97563"/>
<path transform="translate(428,256)" d="m0 0 4 1 1 2-2 3-1-3-5 5-3 4v4l6-1 2-2 4-3h2l1-4h2l-2 5-5 4-5 3-2 2h-14l5-5 6-9 3-5z" fill="#A0766A"/>
<path transform="translate(560,377)" d="m0 0h2l-1 9-1 4-7 4-8 8h-2l-1 4-5 4-6 3-2-1 5-5 3-1v-2l6-4 12-12 3-6z" fill="#3F1514"/>
<path transform="translate(630,287)" d="m0 0 4 2 3 3 10 2v2l-2 1 1 6 2 5 4 9 1 2 5-1-1 3-4 1-5-4-2-6-3-5-3-10-4-3-7-1z" fill="#904A2E"/>
<path transform="translate(668,698)" d="m0 0 3 2v2l4 2 7 7v2l4 2-2 2-3-1-2-4-3-1-1 16-2 6h-1v-8l1-3-1-13-1-2-2 3z" fill="#692E21"/>
<path transform="translate(272,300)" d="m0 0 6 1v4l-1 4-2-2v11h3l2 8-3-1v-2h-5v-3h-3l-1-6 2-1 1-12z" fill="#2C243C"/>
<path transform="translate(195,739)" d="m0 0h1v8l-3 31-1 11-3 1v-11l4-37z" fill="#5B2115"/>
<path transform="translate(491,248)" d="m0 0h30l3 1v2l3 1-12-1h-27l-17 4-7-1v-2z" fill="#B49793"/>
<path transform="translate(313,81)" d="m0 0v3l-12 12-9 15-7 14-2-1 1-5 9-17 10-13z" fill="#954D30"/>
<path transform="translate(221,269)" d="m0 0 1 2h2l-3 12-8 19-13 30-1-4 13-31 6-14z" fill="#461D1D"/>
<path transform="translate(282,124)" d="m0 0h2l-1 6-9 23-4 10-6 18h-1v-7l6-18h2l2-10h2l1-7z" fill="#7B3B28"/>
<path transform="translate(632,163)" d="m0 0 3 4 3 10 4-1v6l2 2h1l1 15 4 14v5l-2-4-8-26-7-20z" fill="#AB7563"/>
<path transform="translate(299,180)" d="m0 0h1l-1 17-4 33-3 3-1-4 5-33 2-15z" fill="#974F31"/>
<path transform="translate(378,323)" d="m0 0h2l-1 4-12 7-9 3-15 1v-2l-3-1 20-3 12-5z" fill="#AE8F89"/>
<path transform="translate(280,327)" d="m0 0 4 3 5 13 3 11 5 12 2 5-1 7-2-4-8-23v-4h-2l-2-10-4-7z" fill="#552118"/>
<path transform="translate(499,816)" d="m0 0 2 3-2 9-6 21-3 12-2 1 1-10 5-21z" fill="#5B2116"/>
<path transform="translate(228,547)" d="m0 0 10 1 21 6 21 8 12 5 4 4-10-3-12-6-19-7-21-5-6-1z" fill="#5E2419"/>
<path transform="translate(604,272)" d="m0 0 2 1-2 4-1 12 11-6 1-6 3 4 3 6 2 6h-2l-4-7-6 2-4 4h-2l-1 3h-3l-1-13 2-9z" fill="#974F31"/>
<path transform="translate(557,390)" d="m0 0h2v9l-4 25-3-3-5-3-3-2 1-2 5 3 4 1 2-22-4 1-8 7-1-2 8-7z" fill="#60261B"/>
<path transform="translate(285,519)" d="m0 0 3 1-5 5-7 6-4 3-22 1-9 3-4 1 3-3 4-2v-4h2v2h24l6-6h2v-4z" fill="#5C2317"/>
<path transform="translate(488,436)" d="m0 0 2 1-1 4v3l-1 10 2 1h-2l2 4-2 5v9l-1 9h-1l-1-9-1-26 2-7z" fill="#60271B"/>
<path transform="translate(298,505)" d="m0 0h7l-3 2h-2l1 4-1 2 3 1 3 2h-3v7h2l6 15 4 8-1 2-2-4h-2l-8-20-3-7z" fill="#6C2F20"/>
<path transform="translate(309,191)" d="m0 0h1l-1 14-5 33-2 7h-1v-8l3-22 3-20z" fill="#733525"/>
<path transform="translate(389,448)" d="m0 0h1l3 9 2 4h-3l-1 27-1 5-7 1v-2l4-1v-2h2z" fill="#29090F"/>
<path transform="translate(385,104)" d="m0 0h2l-2 32v10l-1 4-3 1v-16z" fill="#8F4A2E"/>
<path transform="translate(124,890)" d="m0 0h5l1 4-1 3h2v2h2v-3l9-1 1 5h-20v-8z" fill="#B88881"/>
<path transform="translate(531,47)" d="m0 0 6 2 13 8 14 10 10 8-1 2-8-6-14-10-9-5v-2l-5-1-6-4z" fill="#763725"/>
<path transform="translate(49,751)" d="m0 0 1 3-1 2v7l2 6 2 10 4 11-1 3-2-6h-2l-5-13-1-6v-12z" fill="#5B2115"/>
<path transform="translate(405,29)" d="m0 0h44l22 2 14 2v1h-12l-9-1h-8l-12-2-39-1z" fill="#974F31"/>
<path transform="translate(402,876)" d="m0 0 2 4 10 1 6 5 1 11-5 1h-13l1-4 1 1 12 1-1-11-12-2v2h-2z" fill="#5D2418"/>
<path transform="translate(568,270)" d="m0 0 5 2 3-2 1 4v3l4 14h-2l-2 4-2 1v-11l-4-9-3-3z" fill="#AB7666"/>
<path transform="translate(546,92)" d="m0 0h3l11 18 5 13 3 6-1 3-13-25v-2h-2z" fill="#783926"/>
<path transform="translate(446,302)" d="m0 0 4 1 1 8 3 5-1 6-1 4-4-1v-3l-4 1v-2l-4-1v-2l9-1-1-3h2l-3-10z" fill="#94716A"/>
<path transform="translate(567,278)" d="m0 0h2l3 6 1 15 1 4-6 12-2 3-2-1v-3h2l3-11v-7l-1-3 2-4-1-5z" fill="#733626"/>
<path transform="translate(619,462)" d="m0 0 2 1 7 24 3 14 1 10-4-2-2-3-5-3 3-1 4 2-1-9-6-24-2-5z" fill="#642A1E"/>
<path transform="translate(586,470)" d="m0 0h6l-1 5-6 2h-2l-9 6-11 3 1-4 13-5 5-3z" fill="#A97360"/>
<path transform="translate(814,797)" d="m0 0 10 2 8 2 1 5-3 5h-4l-5-6v-4h-2v-2l-5-1z" fill="#A97564"/>
<path transform="translate(284,320)" d="m0 0 7 1 1 2-5 1 1 5v2l10 5v2h13v1l-13 1-10-4-6-9-1-2h2l-1-3z" fill="#322E47"/>
<path transform="translate(220,259)" d="m0 0h1v14l-3 12-1 2-3-1v-13l-1-4 7-1z" fill="#A97462"/>
<path transform="translate(424,452)" d="m0 0h7l-1 9 1 2v6l-4 1-2-3v-4h-2l1-5-1-4z" fill="#974F31"/>
<path transform="translate(595,443)" d="m0 0 3 1-2 17-1 29-1 5h-1v-33l3-16-5-1z" fill="#63291C"/>
<path transform="translate(205,438)" d="m0 0h2l9 16 3 3v5l-5-5-7-6-2-3-1-9z" fill="#AA7462"/>
<path transform="translate(531,219)" d="m0 0 3 1 6 13 1 8-4 2-2-3-4-18z" fill="#AB7563"/>
<path transform="translate(391,263)" d="m0 0 5 1 1 3h2l3 4v3h2l1 5-4 5-5-10-3-7z" fill="#A2766A"/>
<path transform="translate(334,96)" d="m0 0h2l-1 5-7 24-2 10-3-3 2-11 8-24z" fill="#783926"/>
<path transform="translate(504,220)" d="m0 0 5 1 3 5 1 7h-2l2 7v5l-2-4-3-5-4-12z" fill="#AD7C6F"/>
<path transform="translate(453,154)" d="m0 0h1l1 43 2 15v13l-2-2-2-22z" fill="#6E3224"/>
<path transform="translate(663,480)" d="m0 0 3 1 11 21 7 14v2l-4-1-6-14-8-16z" fill="#4B1B16"/>
<path transform="translate(602,791)" d="m0 0 3 2-1 5-9 2 1 9-3 3-2-2-2-1 3-10 1-2 5-1 1-4zm-7 5 2 1z" fill="#A97564"/>
<path transform="translate(366,485)" d="m0 0 4 1-2 3-14 7-8 1-2-1v-2l11-4z" fill="#9A7368"/>
<path transform="translate(447,249)" d="m0 0 5 1v3l7-1 9 2-1 3-8 4h-3v-6h-1l-4 1-3-1-2-5z" fill="#A47668"/>
<path transform="translate(580,237)" d="m0 0h16l10 2 3 1v2l5 2-4 1-4-3-18-2-17 1 4-3z" fill="#63281C"/>
<path transform="translate(620,198)" d="m0 0h5l4 7v3h2l2 5v5h-3l-3-6-2-1-5-11z" fill="#AA7361"/>
<path transform="translate(21,858)" d="m0 0h2l3 27 1 5v10h-2l-1-2-3-27z" fill="#4D1C16"/>
<path transform="translate(682,518)" d="m0 0 3 1 10 21 4 8v2l-4-1-13-28z" fill="#381315"/>
<path transform="translate(365,101)" d="m0 0h1l1 50 2 19h-2l-2-12-1-49-2-1z" fill="#5B2216"/>
<path transform="translate(467,441)" d="m0 0h5l-2 2h-3l-1 3-6 1-2-1-1 2-9 1-8 2-6-2v-1l21-4z" fill="#5C2317"/>
<path transform="translate(299,339)" d="m0 0h13l9 2v2l-15 2h-8z" fill="#15090B"/>
<path transform="translate(394,458)" d="m0 0h2l1 2 11 6 7 1 1 1 8 1v3h-8l-12-4-12-6 3-1z" fill="#5D2317"/>
<path transform="translate(258,745)" d="m0 0h8l3 3v3l-11 1-7 1 2-5z" fill="#914A2E"/>
<path transform="translate(629,219)" d="m0 0 4 4 7 11 6 9 6 12-2 4-5-10v-4h-2l-6-11-5-7v-3h-2z" fill="#763826"/>
<path transform="translate(484,457)" d="m0 0h1l1 16 1-3v-8h2l1 22 5 4-4 1-5-1-2-14z" fill="#6F3222"/>
<path transform="translate(272,246)" d="m0 0 2 2 2 17v15l-2 2-1-2-1-14z" fill="#672B1D"/>
<path transform="translate(382,150)" d="m0 0h1v35l1 23-2-3-1-4v-50z" fill="#5D2318"/>
<path transform="translate(364,37)" d="m0 0 3 1 2 10h3v-8l2 1v3l2 1-2 9-2 5-1 6h-1v-13l-4-5v-3h-2l-1-6z" fill="#8B462C"/>
<path transform="translate(459,144)" d="m0 0h1l4 16 8 20 3 6-1 3-3-5-9-21-4-10z" fill="#572117"/>
<path transform="translate(453,136)" d="m0 0h1l2 8h-2l1 4v49h-1l-1-34-2-4 1-21z" fill="#954D30"/>
<path transform="translate(670,796)" d="m0 0 3 3 6 23 4 9 3 6-2 4-8-20-5-18z" fill="#652C21"/>
<path transform="translate(563,458)" d="m0 0h1l-1 8-6 19-2 6h-3l2-9 7-22z" fill="#5C2217"/>
<path transform="translate(211,439)" d="m0 0 2 3 5 10 6 7v2h4v3l-4 1-5-2-2-7-5-8-3-5h2z" fill="#924C2F"/>
<path transform="translate(647,214)" d="m0 0h2l4 17 2 11v10h-2l-2-10-2-14-2-9z" fill="#974F31"/>
<path transform="translate(486,516)" d="m0 0 5 1v1l-43 10-2-2 16-4z" fill="#974F31"/>
<path transform="translate(494,187)" d="m0 0 2 2 1 6h2l1 4 1 8 3 3 4 8-5 1-2-2-3-11-4-15z" fill="#AB7563"/>
<path transform="translate(582,256)" d="m0 0 3 1-4 6h-2v7l1 4h-2l-3-3-3 2-3-3-1-6 2 1v2l5-1v-4l4-2z" fill="#8B462C"/>
<path transform="translate(452,317)" d="m0 0 5 5 8 6 12 4-4 1-3 1-10-4-7-6z" fill="#2D1F32"/>
<path transform="translate(619,271)" d="m0 0h4l1 2h13l-1 3-16 2-4 4v-5h-2l1-5 1 2h4z" fill="#834029"/>
<path transform="translate(668,312)" d="m0 0 3 4 12 36-2 2-9-24-4-14z" fill="#39161A"/>
<path transform="translate(271,320)" d="m0 0 1 3h5l-3 2 1 22 1 11h-2l-1 5h-1z" fill="#62291D"/>
<path transform="translate(301,857)" d="m0 0h2l4 38v5l-3-1-3-35z" fill="#5B2318"/>
<path transform="translate(226,392)" d="m0 0h1l5 17 7 18-1 3-6-12-7-17z" fill="#642B20"/>
<path transform="translate(334,195)" d="m0 0h1l1 12-2 31-1 9h-1v-21l1-25z" fill="#7C3B26"/>
<path transform="translate(427,260)" d="m0 0h2v5h3l1-2 2 1-2 4-7 5-4-1-1-5h2l2-5z" fill="#B4948E"/>
<path transform="translate(269,750)" d="m0 0 2 1-1 5h-14l-6-2 1-2z" fill="#371011"/>
<path transform="translate(309,464)" d="m0 0h10l-3 2-9 3-15 3-1-3 14-4z" fill="#5F251A"/>
<path transform="translate(606,323)" d="m0 0 4 1 9 7 2 1v2l4 1 8 6 5 5-5-2-16-11-5-1-1-4h-2z" fill="#975033"/>
<path transform="translate(214,746)" d="m0 0 2 2v17l-2 4h-3v-8l2-14z" fill="#250D0C"/>
<path transform="translate(381,748)" d="m0 0h12l2 1v4l-17 1 1-4z" fill="#934D31"/>
<path transform="translate(184,380)" d="m0 0 1 2-1 7v8l3 11 4 8-1 3-6-10-2-7-1-7v-10l1-4z" fill="#6F3324"/>
<path transform="translate(483,331)" d="m0 0 21 1 7 2-3 2-18-1-7-1z" fill="#9A756B"/>
<path transform="translate(390,297)" d="m0 0 3 1-1 5-5 12-4 8h-4l6-12 4-13z" fill="#9E7D75"/>
<path transform="translate(614,246)" d="m0 0 5 1v3l5 1 8 5-3 2-4-4-10-1-6-1-9 1 2-2 3-1h9z" fill="#6B2F21"/>
<path transform="translate(373,322)" d="m0 0 3 2-4 4-12 5-11 1v-2l12-3 8-4z" fill="#29213A"/>
<path transform="translate(341,227)" d="m0 0 18 1 21 3 2 2-15-1-26-3z" fill="#6B2F1E"/>
<path transform="translate(580,826)" d="m0 0h2l-2 9-5 9-4 20h-2l2-14 7-21z" fill="#5A2014"/>
<path transform="translate(273,352)" d="m0 0h1l1 6 2 25v10l-2-2-2-15z" fill="#61271C"/>
<path transform="translate(224,235)" d="m0 0h1v11l-2 25-2-2v-15l2-18z" fill="#713424"/>
<path transform="translate(210,665)" d="m0 0h1v15l-4 14h-3l2-10 3-17z" fill="#561F16"/>
<path transform="translate(229,471)" d="m0 0 5 2 7 2h13l3-2-1 5-2 5-1-4h-10l-10-4z" fill="#692F22"/>
<path transform="translate(568,440)" d="m0 0 1 4h15l-3 2h-13l-2 9-1 5-3-1 4-16z" fill="#60271B"/>
<path transform="translate(591,307)" d="m0 0 2 2v9l-3 17h-2l-1 3 1-13z" fill="#753725"/>
<path transform="translate(315,147)" d="m0 0h1v13l-1 7-2-2-3 19h-1v-11l2-14h1l2-10z" fill="#974F31"/>
<path transform="translate(292,487)" d="m0 0 13 4 9 2v2h6v2h-7l-19-6-1 3-1-1z" fill="#5C2317"/>
<path transform="translate(253,367)" d="m0 0h1l2 19 2 9v12l-2-1-3-18z" fill="#7E3D29"/>
<path transform="translate(566,327)" d="m0 0h1v15l-1 7-5-2-5-3v-2l7 2 1-15z" fill="#974F31"/>
<path transform="translate(610,189)" d="m0 0h2l6 10 4 6 3 3 2 5-1 3-5-5-1-6-3-1-1-5h-2l-3-5z" fill="#723424"/>
<path transform="translate(324,130)" d="m0 0h1v7l-6 27h-1v-9l2-15z" fill="#662A1B"/>
<path transform="translate(592,496)" d="m0 0h17l9 1 3 5-11-3h-11l-9 1z" fill="#63281B"/>
<path transform="translate(530,245)" d="m0 0h3l1 7h2l1 2h6l1 3-3 1-14-5v-2h-3v-2h4z" fill="#987065"/>
<path transform="translate(409,239)" d="m0 0 7 6 4 6v2h2v-2l2 1v3h-7l-1-1-10-1v-1h10l-8-11z" fill="#84422B"/>
<path transform="translate(388,193)" d="m0 0 4 1-1 5 2 8 2 4-1 4-3-3-3-4-1-11z" fill="#924C2F"/>
<path transform="translate(59,851)" d="m0 0 5 1 14 7 6 2-2 2-7-1-13-7v-2h-3z" fill="#974F31"/>
<path transform="translate(286,261)" d="m0 0h1v7l-1 5h-2l-2 7h3v2h-2l-1 5h-3l-1-4 4-10 3-11z" fill="#88462F"/>
<path transform="translate(646,822)" d="m0 0 2 2 8 32-1 7h-1l-8-38z" fill="#974F31"/>
<path transform="translate(550,762)" d="m0 0 2 1 2 11 2 21-3 1-2-19z" fill="#5C2317"/>
<path transform="translate(670,743)" d="m0 0h1v8l-3 7-1 2-1 12h-1l-2-12v-5l3-4v5h2v-7z" fill="#642B20"/>
<path transform="translate(382,753)" d="m0 0h12l-1 2h-2l2 5-15 1-1 2v-3l10-2v-2l-4 1-5-2z" fill="#3B1111"/>
<path transform="translate(182,575)" d="m0 0h1v27l-1 13h-1l-1-18v-19z" fill="#61281C"/>
<path transform="translate(625,790)" d="m0 0 4 2 10 10v2l4 2 2 4 2 1-1 3-4-2-3-5v-2l-3-1-5-7-2-1v-2l-4-2z" fill="#6B2F21"/>
<path transform="translate(607,335)" d="m0 0 3 2 5 13 6 11-1 2-2 1-5-11-5-15z" fill="#944D30"/>
<path transform="translate(381,9)" d="m0 0 7 1 3 1 1 5h-4-8l-1-4z" fill="#BB8D88"/>
<path transform="translate(519,505)" d="m0 0h3v2l3 1-22 7-9 1 2-2 19-6h3z" fill="#5D2418"/>
<path transform="translate(376,258)" d="m0 0 5 1 7 5v7l-7-6-7-4z" fill="#9F786D"/>
<path transform="translate(429,232)" d="m0 0 3 4 6 9 1 6-4-1-3-5-3-8z" fill="#AA7462"/>
<path transform="translate(607,436)" d="m0 0h2v3l4 2 1 2h5l-3 6 1 9-3-3-5-13-2-3z" fill="#5C2216"/>
<path transform="translate(192,420)" d="m0 0 5 4v2l4 2 4 6 4 1 2 4v4l-3-1-2-4-5-5-7-8z" fill="#5C251A"/>
<path transform="translate(324,330)" d="m0 0h5v4l3-1 4 2-30 1-2-3h18z" fill="#2A192B"/>
<path transform="translate(377,256)" d="m0 0 6 2 8 5 5 7 1 5-3-1-1-3-4-2-3-6-9-6z" fill="#522726"/>
<path transform="translate(369,167)" d="m0 0h1l3 21v9l-2-2-4-22v-3h2z" fill="#82402A"/>
<path transform="translate(469,173)" d="m0 0 1 2 3-1 1 4v3h2l3 5v8l-2-1v-3h-2l-1 2-1-4 1-2-5-10z" fill="#954E31"/>
<path transform="translate(141,890)" d="m0 0 9 2 14 7v1h-10l-3-3v-2l-7-1v-2l-3-1z" fill="#B6877F"/>
<path transform="translate(587,804)" d="m0 0 2 3-1 5-5 14h-3l1-7 5-13z" fill="#5D2418"/>
<path transform="translate(655,245)" d="m0 0h1l3 14 1 4-2 2-1 4-4-13v-4h2z" fill="#A86F5B"/>
<path transform="translate(384,760)" d="m0 0h9l1 4-4 1h-10l-2-1v-3z" fill="#A06653"/>
<path transform="translate(381,493)" d="m0 0 3 1-4 3-19 7-4-1 8-4 9-3z" fill="#3F181A"/>
<path transform="translate(294,70)" d="m0 0 2 1-17 17-9 12-1-2 9-12 9-10z" fill="#793925"/>
<path transform="translate(21,834)" d="m0 0h2v24h-2l-1-2v-16z" fill="#6C2F1E"/>
<path transform="translate(532,318)" d="m0 0 7 1 2 2-1 5-10-2 1-5z" fill="#B88A84"/>
<path transform="translate(390,245)" d="m0 0 2 3 1 3 2 1v2l11 1-2 2-11 1-1-2-10-1v-1l8-1v-4z" fill="#783926"/>
<path transform="translate(563,254)" d="m0 0h2v4h-2l-2 5h-3l1-4-3 2-6-1v-3l7-1 5 1z" fill="#703222"/>
<path transform="translate(56,767)" d="m0 0h2l2 6-2 2h-3v6h-2l-1-2v-11z" fill="#A8705C"/>
<path transform="translate(697,391)" d="m0 0 2 3 6 21-2 4-7-23-1-4z" fill="#3E1819"/>
<path transform="translate(762,773)" d="m0 0 9 4-3 2-3-1-4 17-2 3 1-10z" fill="#662D21"/>
<path transform="translate(539,716)" d="m0 0 1 3-10 24h-3l3-9 8-16z" fill="#5C2317"/>
<path transform="translate(623,293)" d="m0 0 3 1 2 5 4 5 4 4-6-1-6-7-5-2 4-1z" fill="#8E492E"/>
<path transform="translate(608,176)" d="m0 0 4 4 3 6h1l1-2 2 3v5h-2l-1 2-3-4-6-13z" fill="#AB7563"/>
<path transform="translate(544,484)" d="m0 0 7 2 1 3-3 4v-2l-3 2h-4z" fill="#AA7462"/>
<path transform="translate(396,296)" d="m0 0h1l-1 8-5 12-4 3h-2l2-6 4-4 3-10z" fill="#2E2033"/>
<path transform="translate(712,877)" d="m0 0 3 1 4 16 1 6h-3l-5-19z" fill="#723423"/>
<path transform="translate(102,687)" d="m0 0 2 2-25 25v-3l15-15 7-8z" fill="#652C21"/>
<path transform="translate(797,565)" d="m0 0 5 5 3 4v2l3 1 9 14-3 1-12-18-5-7z" fill="#491E1C"/>
<path transform="translate(539,501)" d="m0 0 1 2-4 14-3-1 3-9 1-2-6 2h-5l1-3z" fill="#5E2519"/>
<path transform="translate(436,293)" d="m0 0h2l10 16-2 2-7-8v-3h-2z" fill="#9A756B"/>
<path transform="translate(347,143)" d="m0 0h1l-1 8-3 10-3 3v-7l3-11z" fill="#3D1312"/>
<path transform="translate(559,750)" d="m0 0 5 1 3 5 11 7 1 2-5-2-7-3-5-4-3-4z" fill="#5E2419"/>
<path transform="translate(317,410)" d="m0 0 9 5 10 6 4 3-3 1-13-7-3-2v-2l-5-2z" fill="#471915"/>
<path transform="translate(517,236)" d="m0 0 3 2 1 6 2 1v2l2 1-4 1-4-2 1-3h-2l-2-7z" fill="#AE8074"/>
<path transform="translate(675,541)" d="m0 0 5 5 9 12-1 3-4-4v-2h-2l-7-9z" fill="#6E3222"/>
<path transform="translate(360,332)" d="m0 0 3 1-5 2v2l-15 1v-2l-3-1z" fill="#97746D"/>
<path transform="translate(210,303)" d="m0 0 1 4-11 25-1-4 10-24z" fill="#481A16"/>
<path transform="translate(571,281)" d="m0 0 1 2 3-1 1 7-2 10-2 3z" fill="#28101C"/>
<path transform="translate(554,269)" d="m0 0 4 1v3l4 1h-3l-1 5-3 5h-1z" fill="#382231"/>
<path transform="translate(526,332)" d="m0 0 9 1-2 1v2h-21l4-2z" fill="#B58A83"/>
<path transform="translate(630,257)" d="m0 0h3l8 16 2 2-1 1h-6v-8z" fill="#5C2216"/>
<path transform="translate(403,252)" d="m0 0 13 1 4 1 5 1v1l-21 1z" fill="#662D21"/>
<path transform="translate(482,249)" d="m0 0h7l-1 2-17 4-7-1v-2z" fill="#B2948F"/>
<path transform="translate(846,804)" d="m0 0h19l-1 3-2 1h-7l-9-3z" fill="#201014"/>
<path transform="translate(824,798)" d="m0 0 9 1 16 4-3 2-14-3-8-2z" fill="#220F14"/>
<path transform="translate(722,747)" d="m0 0 4 2 18 13-2 1-16-10-6-4z" fill="#582016"/>
<path transform="translate(661,531)" d="m0 0 6 1 4 4 5 7h-3l-6-8h-15l1-3z" fill="#5C2318"/>
<path transform="translate(528,410)" d="m0 0h2l1 4-11 7h-4l-2-1 4-3h3v-2h3v-2h3z" fill="#532019"/>
<path transform="translate(268,299)" d="m0 0h2l1 3v11l-4 1v-14z" fill="#B49590"/>
<path transform="translate(549,265)" d="m0 0 3 1 3 6-1 9-2-3-2-4-4-5z" fill="#A47566"/>
<path transform="translate(269,156)" d="m0 0 2 2-1 5-6 18h-1v-7z" fill="#7F3E29"/>
<path transform="translate(281,422)" d="m0 0h1l3 20h-2l-1 2-3-19 1-2z" fill="#5D2418"/>
<path transform="translate(288,328)" d="m0 0 5 2 6 3 3 4-7-1-9-6z" fill="#9B7469"/>
<path transform="translate(364,17)" d="m0 0h2l1 12 1 3 3-1-1 4h-6z" fill="#B48378"/>
<path transform="translate(506,799)" d="m0 0h1l-1 8-4 12h-2l1-9 3-9h2z" fill="#4C1A14"/>
<path transform="translate(427,449)" d="m0 0h11v2l-5 1h-22v-1z" fill="#4B1913"/>
<path transform="translate(262,179)" d="m0 0 2 3-5 20h-3l2-10z" fill="#924B2F"/>
<path transform="translate(420,867)" d="m0 0h3v8l-3 3h-3l-1-4 3-6z" fill="#5D2418"/>
<path transform="translate(761,798)" d="m0 0h35v1l-26 1-9 2-2 3 1-5z" fill="#AA7563"/>
<path transform="translate(724,610)" d="m0 0 2 4 5 21-1 3-4-12-4-13 1-2z" fill="#8A452C"/>
<path transform="translate(298,505)" d="m0 0h7l-3 2h-2l1 4-1 2 3 1 3 2h-3l-1 7-2-2-2-13z" fill="#7F3D27"/>
<path transform="translate(348,491)" d="m0 0 4 1-19 6h-8l1-2z" fill="#5F251A"/>
<path transform="translate(398,299)" d="m0 0 1 2-4 12h-2l1 6h-2v3h-2v-6l6-15z" fill="#B5867F"/>
<path transform="translate(661,278)" d="m0 0 5 1 1 7-2 3-3-1-2-8z" fill="#AA7563"/>
<path transform="translate(309,191)" d="m0 0h1l-1 14-2 8-2 2 1-14 2-9z" fill="#6B3023"/>
<path transform="translate(241,154)" d="m0 0h2l-3 10-5 16h-1l1-9 3-12z" fill="#61291D"/>
<path transform="translate(613,125)" d="m0 0 4 5 7 15v2h-2l-4-8-6-11z" fill="#7F3E29"/>
<path transform="translate(706,735)" d="m0 0 5 3 11 8v2l-5-1v-2h-3v-2l-5-2-3-4z" fill="#3C1313"/>
<path transform="translate(772,531)" d="m0 0 5 4 11 15 5 7-1 2-20-26z" fill="#642B1F"/>
<path transform="translate(275,473)" d="m0 0 2 2v3h2l3 10v5l-3-3-5-15z" fill="#6E3222"/>
<path transform="translate(621,418)" d="m0 0 4 1 7 6 3 3 6 10-4-2-9-11-7-6z" fill="#5A2218"/>
<path transform="translate(274,304)" d="m0 0 4 4 3 14h-3v-4h-3l-1-6z" fill="#9A7066"/>
<path transform="translate(567,278)" d="m0 0h2l3 6 1 15 1 4-3 6h-1v-23z" fill="#472428"/>
<path transform="translate(493,222)" d="m0 0h7l2 1-1 7v3l-3-1-2-6-3-1z" fill="#A8705D"/>
<path transform="translate(282,490)" d="m0 0 2 4 5 12 1 5h-3l-2-6-4-10z" fill="#773826"/>
<path transform="translate(359,813)" d="m0 0h2l-2 13-4 1v-7z" fill="#A46B59"/>
<path transform="translate(356,502)" d="m0 0 3 1-3 3-13 3-7-1v-1l18-4z" fill="#471D1D"/>
<path transform="translate(626,380)" d="m0 0h3l3 9 3 11-1 3-8-21z" fill="#7C3B27"/>
<path transform="translate(250,324)" d="m0 0h1l1 16v11h-2l-1-2v-11z" fill="#7E3D29"/>
<path transform="translate(571,761)" d="m0 0 5 2 10 5v2h2v2l-5-1-10-6v-2h-2z" fill="#431715"/>
<path transform="translate(541,402)" d="m0 0m-2 1 4 2-6 5-6 3-2-1 5-5 3-1v-2z" fill="#441815"/>
<path transform="translate(457,229)" d="m0 0 4 2h-2l2 17 1 4-4-1z" fill="#6F3223"/>
<path transform="translate(391,463)" d="m0 0h1v26l-1 8-3 1-1-2 1-2-2-1h4z" fill="#713423"/>
<path transform="translate(476,438)" d="m0 0 4 1-5 5h-2v2l2 1-6 4-1-2 3-3-2-1v-4l4-2z" fill="#8F492E"/>
<path transform="translate(374,37)" d="m0 0 4 1 5 13v6l-2-1-3-12h-2z" fill="#974F31"/>
<path transform="translate(661,884)" d="m0 0h2v3h2l3 8v5h-3l-4-13z" fill="#753624"/>
<path transform="translate(136,895)" d="m0 0h6l1 5h-12l2-1v-3z" fill="#BB8D88"/>
<path transform="translate(439,889)" d="m0 0 1 4-3 4h-8l-3-1 2-5 3 2h6z" fill="#5E2419"/>
<path transform="translate(51,785)" d="m0 0 1 2 2 1-5 5-9 14-2-2 6-8 2-5 4-4z" fill="#7D3C28"/>
<path transform="translate(190,786)" d="m0 0h1v18l-2-3-1 8h-1v-9l2-10z" fill="#491914"/>
<path transform="translate(394,458)" d="m0 0h2l1 2 9 5 1 3-4-1-11-5 3-1z" fill="#5B2216"/>
<path transform="translate(505,338)" d="m0 0h16l3 2v11h-4v-2h2l-2-9-15-1z" fill="#683125"/>
<path transform="translate(501,218)" d="m0 0h2l1 3-1 1-10 1-1 1h-6l-2-2h4v-2h13z" fill="#5C251A"/>
<path transform="translate(121,879)" d="m0 0 6 1 14 6v3l-6-2-14-7z" fill="#62271A"/>
<path transform="translate(563,842)" d="m0 0 1 4h2l2 13h-2l-1 4-2-15z" fill="#401513"/>
<path transform="translate(544,471)" d="m0 0h2l-2 16-3 8-2-2 3-12z" fill="#642A1E"/>
<path transform="translate(639,438)" d="m0 0 4 1 6 8v3l-3 1h-11v-1l12-1-6-8z" fill="#703323"/>
<path transform="translate(573,303)" d="m0 0 1 4-2 9-2 3-4 1h-3l6-8z" fill="#9D7265"/>
<path transform="translate(598,238)" d="m0 0 8 1 3 1v2l5 2-4 1-4-3-18-2v-1z" fill="#773826"/>
<path transform="translate(576,283)" d="m0 0 3 1 2 7h-2l-2 4-2 1z" fill="#AC7A6C"/>
<path transform="translate(439,246)" d="m0 0 4 2 5 5v2h-10l2-2z" fill="#642A1F"/>
<path transform="translate(402,876)" d="m0 0 2 4 10 1 4 4-14-2v2h-2z" fill="#642B20"/>
<path transform="translate(560,834)" d="m0 0h3l2 7v5l-1 2v6l-2-4-2-11z" fill="#5C2317"/>
<path transform="translate(247,508)" d="m0 0h1l-1 10-1 12h-2v-13l1-6z" fill="#86432B"/>
<path transform="translate(482,436)" d="m0 0h2l1 5-5 2-5 3h-2v-4l5-3h2v-2z" fill="#5C2419"/>
<path transform="translate(368,253)" d="m0 0h6l4 4-2 2-5-1-6-2z" fill="#8A5B50"/>
<path transform="translate(428,246)" d="m0 0 4 2 1 6-1 1h-7v-2h2z" fill="#A9725F"/>
<path transform="translate(398,224)" d="m0 0 5 4 6 10v2l-4-2-7-11z" fill="#7F3E29"/>
<path transform="translate(463,151)" d="m0 0 2 3 3 3-1 5 1 4-2 2-4-12z" fill="#985134"/>
<path transform="translate(531,47)" d="m0 0 6 2 10 6-1 2-4-1v-2l-5-1-6-4z" fill="#692D1E"/>
<path transform="translate(899,748)" d="m0 0h1v8l-5 2-1-4 2-5z" fill="#AA7563"/>
<path transform="translate(196,721)" d="m0 0 2 3-1 15-3 1 1-12z" fill="#5D2318"/>
<path transform="translate(576,481)" d="m0 0 3 1-7 4-8 2h-7l2-2 15-4z" fill="#652A1C"/>
<path transform="translate(261,450)" d="m0 0 1 2 5-2v3l-3 3-4 10h-1v-6z" fill="#60271C"/>
<path transform="translate(268,314)" d="m0 0h5l2 5-1 4h-2v-3h-3z" fill="#210B0D"/>
<path transform="translate(333,256)" d="m0 0h27l4 2v1l-10-1-21-1z" fill="#2C1E31"/>
<path transform="translate(629,219)" d="m0 0 4 4 7 11 2 5-3-1-4-7-3-4v-3h-2z" fill="#60261A"/>
<path transform="translate(226,214)" d="m0 0h1v12l-1 9-3 1 2-19z" fill="#7A3B27"/>
<path transform="translate(364)" d="m0 0h3l-2 17-3-2 1-12z" fill="#6E3120"/>
<path transform="translate(350,737)" d="m0 0 15 1-4 1v3l-9-1z" fill="#4B1E1A"/>
<path transform="translate(277,562)" d="m0 0 9 2 9 5 1 2-10-3-9-5z" fill="#5C2217"/>
<path transform="translate(269,454)" d="m0 0 2 3 4 13v3h-2l-5-15z" fill="#5E2519"/>
<path transform="translate(508,228)" d="m0 0 4 1 1 4h-2l2 7v5l-2-4-3-5z" fill="#B5867E"/>
<path transform="translate(494,187)" d="m0 0 2 2 1 6h2l2 8-2 4-3-7-2-9z" fill="#AA7461"/>
<path transform="translate(365,101)" d="m0 0h1v28h-1l-1-20-2-1z" fill="#612619"/>
<path transform="translate(364,37)" d="m0 0 3 1 2 10 3 1-2 3-4-5v-3h-2l-1-6z" fill="#8E482D"/>
<path transform="translate(881,792)" d="m0 0 1 3-1 2 19 1v1h-21l-2-2z" fill="#A97462"/>
<path transform="translate(603,777)" d="m0 0 6 1 10 6 2 3-5-2-10-5h-5l-1-2z" fill="#5B2319"/>
<path transform="translate(361,739)" d="m0 0h5l1 4-1 2h-7v-3h2z" fill="#0C0508"/>
<path transform="translate(183,397)" d="m0 0h1l3 11 4 8-1 3-6-10-1-2z" fill="#8F492E"/>
<path transform="translate(326,119)" d="m0 0h3l-2 11-1 5-3-3 2-11z" fill="#83412A"/>
<path transform="translate(369,68)" d="m0 0 1 4-2 18-1-4-2-1 3-16z" fill="#934C2F"/>
<path transform="translate(21,858)" d="m0 0h2l1 16-2 3-1-6z" fill="#5D2317"/>
<path transform="translate(545,507)" d="m0 0 2 3-5 13-3 3 1-7 4-9z" fill="#632A1E"/>
<path transform="translate(486,460)" d="m0 0 2 2v11l-1 9h-1l-1-9v-12z" fill="#591F13"/>
<path transform="translate(293,218)" d="m0 0h2l1 6-2 7-2 2-1-4z" fill="#8C472D"/>
<path transform="translate(381,201)" d="m0 0 2 4 2-4 1 15h-2l-2-3z" fill="#82402A"/>
<path transform="translate(382,185)" d="m0 0h1l1 23-2-3-1-4v-10z" fill="#5F261A"/>
<path transform="translate(593,555)" d="m0 0 2 1-14 9-2-1 3-4h2v-2z" fill="#5E2519"/>
<path transform="translate(467,441)" d="m0 0h5l-2 2h-3l-1 3-6 1-3-3v-1z" fill="#6F3324"/>
<path transform="translate(274,373)" d="m0 0 2 1 1 9v10l-2-2-1-7z" fill="#5F261B"/>
<path transform="translate(217,336)" d="m0 0h1l2 23-2 1-1-2z" fill="#642B20"/>
<path transform="translate(472,332)" d="m0 0 11 1 6 2-1 2-15-2z" fill="#251725"/>
<path transform="translate(394,280)" d="m0 0h2l1 8 1 2-3 7-2-3v-5l1-4z" fill="#324773"/>
<path transform="translate(428,256)" d="m0 0 4 1 1 2-2 3-1-3-5 5-2 1-2-2 3-3 1-3z" fill="#9A7368"/>
<path transform="translate(383,233)" d="m0 0h7v12l-2-3-3-6-2-1z" fill="#5D2519"/>
<path transform="translate(485,224)" d="m0 0h4v2l-6 2v2l-8-1-1-2z" fill="#9A7368"/>
<path transform="translate(459,136)" d="m0 0 2 3v2l2 1v7l-2 4-3-13z" fill="#974F31"/>
<path transform="translate(268,100)" d="m0 0v3l-9 16h-3l8-14z" fill="#63291B"/>
<path transform="translate(455,87)" d="m0 0h1l-1 25-2-3v-14z" fill="#974F31"/>
<path transform="translate(574,77)" d="m0 0 4 2 13 13 1 3-4-2-9-10z" fill="#61271A"/>
<path transform="translate(508,542)" d="m0 0 3 1-10 6-4 2-3-1 8-5z" fill="#61281D"/>
<path transform="translate(488,436)" d="m0 0 2 1-1 4v3l-2 9h-1l-1-12z" fill="#5A2116"/>
<path transform="translate(627,429)" d="m0 0 3 1-1 4-7 6-2 3h-2l2-4 3-4h2v-3h3z" fill="#7B3A25"/>
<path transform="translate(200,383)" d="m0 0 3 1 1 7-2 5v8h-1l-1-7z" fill="#974F31"/>
<path transform="translate(280,327)" d="m0 0 4 3 4 10-1 7h-1l-2-10-4-7z" fill="#82402A"/>
<path transform="translate(302,250)" d="m0 0h1v8l4 2v3h-2l-1 3-2-2z" fill="#98756C"/>
<path transform="translate(195,739)" d="m0 0h1v8l-1 7h-3l1-12z" fill="#5C2216"/>
<path transform="translate(137,647)" d="m0 0v3l-8 11-3 3-2-1 9-11z" fill="#652C21"/>
<path transform="translate(256,389)" d="m0 0h1l1 6v12l-2-1-1-5v-7z" fill="#6E3121"/>
<path transform="translate(223,384)" d="m0 0 2 1 1 3v9h-2l-2-7v-5z" fill="#61271C"/>
<path transform="translate(622,334)" d="m0 0 4 2 6 4 6 5-2 1-14-10z" fill="#974F31"/>
<path transform="translate(546,265)" d="m0 0 3 1-1 5 4 2v2h-5l-1 3-2-12z" fill="#AA7563"/>
<path transform="translate(318,195)" d="m0 0h1l2 7v13l-2-1-1-9z" fill="#6D301F"/>
<path transform="translate(340,158)" d="m0 0 3 4-2 13h-2v-12z" fill="#562219"/>
<path transform="translate(307,504)" d="m0 0h7l-2 3 2 2-10-1-1-2z" fill="#997269"/>
<path transform="translate(284,455)" d="m0 0 2 4 3 16-1 4-2-9-2-5z" fill="#974F31"/>
<path transform="translate(358,337)" d="m0 0h2v2l-8 3-8 1 4-4z" fill="#210C11"/>
<path transform="translate(550,337)" d="m0 0 4 2v1l-30-1v-1z" fill="#6B2F22"/>
<path transform="translate(504,332)" d="m0 0h15v2l-7 2-4-1z" fill="#A57565"/>
<path transform="translate(278,322)" d="m0 0 5 1v4l5 8-1 4-5-10-4-6z" fill="#AA7564"/>
<path transform="translate(578,293)" d="m0 0 1 4-2 7h-2l-1-7z" fill="#A77363"/>
<path transform="translate(630,287)" d="m0 0 4 2 3 3 4 2-3 1-9-2z" fill="#944D30"/>
<path transform="translate(409,280)" d="m0 0 4 1-8 7-4 4 1-5 5-5z" fill="#B28378"/>
<path transform="translate(614,249)" d="m0 0 6 2v1l-7 1-4-1-9 1 2-2z" fill="#944D30"/>
<path transform="translate(324,226)" d="m0 0h1l4 16v5l-2-2-4-13z" fill="#914B2F"/>
<path transform="translate(626,211)" d="m0 0 3 3 1 5-1 3h-2l-4-8 1-2 2 3z" fill="#88452C"/>
<path transform="translate(620,203)" d="m0 0 5 5 2 5-1 3-5-5-2-7z" fill="#6D3122"/>
<path transform="translate(320,145)" d="m0 0h2l-1 9-2 10h-1v-9z" fill="#561F15"/>
<path transform="translate(580,826)" d="m0 0h2l-2 9-2 3-2-1 1-5z" fill="#551E15"/>
<path transform="translate(550,762)" d="m0 0 2 1 2 11v5h-2l-1-2z" fill="#5F251A"/>
<path transform="translate(713,588)" d="m0 0 2 3-1 3-9 3-4-1 5-3 7-1z" fill="#602518"/>
<path transform="translate(302,506)" d="m0 0 6 3-3 4h-5v-6z" fill="#A57363"/>
<path transform="translate(300,466)" d="m0 0h5l-4 2 2 2-11 2-1-3z" fill="#5E2419"/>
<path transform="translate(540,319)" d="m0 0 2 1v2l4 1 2 1v2l5-1-3 3-5-1-5-6z" fill="#40222B"/>
<path transform="translate(389,315)" d="m0 0 1 3-3 6-3 2-2-3 2-4 4-2z" fill="#1D0C12"/>
<path transform="translate(651,257)" d="m0 0 3 1 3 11-4-1z" fill="#64281B"/>
<path transform="translate(604,113)" d="m0 0h3l6 10v3h-2l-7-11z" fill="#783927"/>
<path transform="translate(610,781)" d="m0 0 8 4v2h-7l-4-3 1-2 2 1z" fill="#9A7268"/>
<path transform="translate(49,751)" d="m0 0 1 3-1 2v9l-3 3v-12z" fill="#5F261A"/>
<path transform="translate(182,575)" d="m0 0h1v16h-2l-1-13z" fill="#5A2014"/>
<path transform="translate(306,492)" d="m0 0h5l3 1v2h6v2h-7l-6-2z" fill="#5E2519"/>
<path transform="translate(494,338)" d="m0 0h11l6 2v1h-9l-7-1z" fill="#9A756B"/>
<path transform="translate(396,294)" d="m0 0 2 1-1 3-2 1-3 10-3 2 3-10 1-4h2z" fill="#292643"/>
<path transform="translate(442,255)" d="m0 0h9v3l-13 2 2-1v-2z" fill="#A07569"/>
<path transform="translate(299,532)" d="m0 0h2l5 10 1 4-4-4-4-6z" fill="#6F3222"/>
<path transform="translate(285,512)" d="m0 0 4 1 1 5-6 1v-6z" fill="#AA7361"/>
<path transform="translate(621,502)" d="m0 0 4 1 6 2 1 6-4-2-2-3-5-3z" fill="#5F251A"/>
<path transform="translate(309,403)" d="m0 0h3l5 6v2l-5 1z" fill="#3A1213"/>
<path transform="translate(186,364)" d="m0 0 2 1-3 15-2 1 1-10z" fill="#642A1D"/>
<path transform="translate(682,352)" d="m0 0 3 4 3 7v5l-3-4-3-7z" fill="#2E1215"/>
<path transform="translate(287,342)" d="m0 0 2 1 3 11v3h-2l-3-10z" fill="#5A2319"/>
<path transform="translate(273,347)" d="m0 0h2l1 11h-2l-1 5h-1v-15z" fill="#773927"/>
<path transform="translate(677,338)" d="m0 0 2 2 4 12-2 2-5-13z" fill="#3A171C"/>
<path transform="translate(655,268)" d="m0 0 3 1 2 9v5l-3-1-1-8z" fill="#5C2216"/>
<path transform="translate(249,261)" d="m0 0 2 4v7l-2 2-2-1 1-7z" fill="#8C472D"/>
<path transform="translate(456,255)" d="m0 0 7 1 5-1-1 2-8 4h-3z" fill="#AC8378"/>
<path transform="translate(416,250)" d="m0 0 6 3v-2l2 1v3h-7l-1-1-10-1v-1h10z" fill="#975032"/>
<path transform="translate(630,224)" d="m0 0h2l5 9 2 4h-7l-1-2 3-2-4-8z" fill="#954D30"/>
<path transform="translate(233,178)" d="m0 0 2 4-3 12h-2l1-9z" fill="#713322"/>
<path transform="translate(571,138)" d="m0 0 3 3 4 12-1 4-6-16z" fill="#652C21"/>
<path transform="translate(560,114)" d="m0 0 3 4 5 11-1 3-8-15z" fill="#652C21"/>
<path transform="translate(546,56)" d="m0 0 4 1 9 6-1 2-4-2-8-5z" fill="#723422"/>
<path transform="translate(367,481)" d="m0 0 1 4-12 5-3-1 5-3h4l1-2h2z" fill="#672D21"/>
<path transform="translate(483,440)" d="m0 0 2 1v5h-10l3-3z" fill="#974F31"/>
<path transform="translate(284,320)" d="m0 0 7 1 1 2-5 1v3l-3-1-2-4z" fill="#3A2534"/>
<path transform="translate(608,267)" d="m0 0 6 1 1 4h-4l-4-1z" fill="#783825"/>
<path transform="translate(652,240)" d="m0 0h2l1 2v10h-2l-2-9z" fill="#7E3E29"/>
<path transform="translate(499,44)" d="m0 0h2l3 5-1 2-4-1-3-1v-4z" fill="#9F5E45"/>
<path transform="translate(519,764)" d="m0 0 1 3-3 8h-3l3-10z" fill="#5D2317"/>
<path transform="translate(647,527)" d="m0 0 4 2 2 4 2 1-7 1v-5z" fill="#551F16"/>
<path transform="translate(320,501)" d="m0 0 2 1-1 4h-7v-2l-3-1z" fill="#996D60"/>
<path transform="translate(732,480)" d="m0 0 4 1 8 12-1 2-11-14z" fill="#491C19"/>
<path transform="translate(242,477)" d="m0 0h13l-1 6-1-4h-10z" fill="#351013"/>
<path transform="translate(714,444)" d="m0 0 3 4 3 8h-3l-4-8z" fill="#3A1619"/>
<path transform="translate(258,408)" d="m0 0 2 2 2 12-3-1-1-5z" fill="#5E2519"/>
<path transform="translate(437,262)" d="m0 0h2l-2 5-5 4-3 2-3-1 8-6h2z" fill="#A17568"/>
<path transform="translate(390,245)" d="m0 0 2 3 1 3 2 1v2h-2l-1 2-10-1v-1l8-1v-4z" fill="#793A27"/>
<path transform="translate(530,245)" d="m0 0h3l1 7 2 1h-3v-2l-9-1 4-1z" fill="#AB7563"/>
<path transform="translate(492,223)" d="m0 0 5 3 1 6-6-3-1-5z" fill="#974F31"/>
<path transform="translate(655,861)" d="m0 0 3 3 1 11h-2l-2-8z" fill="#793A27"/>
<path transform="translate(244,530)" d="m0 0h2v2h3l1 3-9 3-4 1 3-3 4-2z" fill="#60271B"/>
<path transform="translate(678,508)" d="m0 0h2l4 8v2l-4-1-2-5z" fill="#4C1F1A"/>
<path transform="translate(692,380)" d="m0 0h2l3 8v5l-3-3-2-6z" fill="#2D1014"/>
<path transform="translate(298,375)" d="m0 0h2l3 7v3h-2l-1 2-2-7z" fill="#4A1A14"/>
<path transform="translate(616,353)" d="m0 0 3 4 2 6-3 1-4-9h2z" fill="#904A2E"/>
<path transform="translate(566,327)" d="m0 0h1v10l-3 1v-9z" fill="#934C2F"/>
<path transform="translate(417,271)" d="m0 0 2 2h8l-2 3h-14l5-4z" fill="#99756C"/>
<path transform="translate(389,262)" d="m0 0 5 5 3 7h-3l-1-3-3-3v-3z" fill="#4A2325"/>
<path transform="translate(428,236)" d="m0 0 3 3 3 9-1 3-4-8z" fill="#682C1D"/>
<path transform="translate(344,152)" d="m0 0h1l-1 9-3 3v-7l1-4z" fill="#3A1213"/>
<path transform="translate(120,888)" d="m0 0h2l1 12-3-1z" fill="#753624"/>
<path transform="translate(366,819)" d="m0 0h2l2 11h-2l-3-6z" fill="#80422E"/>
<path transform="translate(720,597)" d="m0 0 2 2 2 9-1 4-3-7z" fill="#602619"/>
<path transform="translate(606,464)" d="m0 0 3 1v3h-3v2h-5l2-2v-3z" fill="#AA7361"/>
<path transform="translate(709,434)" d="m0 0 3 2 2 5v5l-3-3-2-5z" fill="#351213"/>
<path transform="translate(492,433)" d="m0 0h2v2l-6 2-2 4-1-2-2-1 3-3z" fill="#330D10"/>
<path transform="translate(364,334)" d="m0 0h3l1 3-8 2v-2l-2-1z" fill="#2E1927"/>
<path transform="translate(385,314)" d="m0 0 2 1-4 8h-4l4-7h2z" fill="#91726E"/>
<path transform="translate(273,300)" d="m0 0 5 1v4l-1 4-2-2-2 3v-7z" fill="#294474"/>
<path transform="translate(573,285)" d="m0 0h3l-1 12h-2z" fill="#200D0F"/>
<path transform="translate(475,190)" d="m0 0h2l4 9-1 3-5-8z" fill="#6A2F21"/>
<path transform="translate(276,142)" d="m0 0 1 3-5 12-2 1 3-12h2z" fill="#6F3221"/>
<path transform="translate(652,850)" d="m0 0h2l2 6-1 7h-1l-2-8z" fill="#954D30"/>
<path transform="translate(624,795)" d="m0 0 7 1 2 4-9-2z" fill="#A27567"/>
<path transform="translate(602,791)" d="m0 0 3 2-1 3h-2l-1 2-3-1 1-5z" fill="#98756C"/>
<path transform="translate(588,771)" d="m0 0 6 2 4 2v2l-7-1-3-3z" fill="#1E0A0F"/>
<path transform="translate(539,716)" d="m0 0 1 3-5 12-2-3z" fill="#652C21"/>
<path transform="translate(210,665)" d="m0 0h1v13h-3l1-11z" fill="#5F251A"/>
<path transform="translate(381,493)" d="m0 0 3 1-4 3-2 1h-6l3-3z" fill="#3E1516"/>
<path transform="translate(584,475)" d="m0 0 2 4-3 2-4 1-2-2z" fill="#83422C"/>
<path transform="translate(727,469)" d="m0 0 4 5 3 6-4-1-4-8z" fill="#3D1414"/>
<path transform="translate(570,428)" d="m0 0 2 2-2 10-3 1z" fill="#60261B"/>
<path transform="translate(544,414)" d="m0 0 11 5v5l-3-3-5-3-3-2z" fill="#5F251A"/>
<path transform="translate(697,391)" d="m0 0 2 3 2 8h-3l-3-10z" fill="#441816"/>
<path transform="translate(275,265)" d="m0 0h1v15l-2 2-1-2v-6h1z" fill="#6C3123"/>
<path transform="translate(637,269)" d="m0 0 3 1 1 3 2 2-1 1h-6z" fill="#5D2317"/>
<path transform="translate(549,265)" d="m0 0 3 1-1 5v3l-5-5z" fill="#6D5E69"/>
<path transform="translate(90,857)" d="m0 0h2l3 5 7 6h-3l-7-6z" fill="#974F31"/>
<path transform="translate(837,801)" d="m0 0 8 1 4 2-5 1-9-2z" fill="#30141B"/>
<path transform="translate(506,799)" d="m0 0h1l-1 8-1 3h-2l1-9h2z" fill="#451713"/>
<path transform="translate(305,512)" d="m0 0h8v2l-4 1h-8z" fill="#321620"/>
<path transform="translate(350,500)" d="m0 0 5 1-1 3-5 1-3-3z" fill="#9A7064"/>
<path transform="translate(325,494)" d="m0 0h2l-1 3 3 2-7 1 1-2-3-1v-2z" fill="#632A1E"/>
<path transform="translate(625,490)" d="m0 0 2 2-1 5-4-2v-4z" fill="#AA7361"/>
<path transform="translate(541,323)" d="m0 0 8 5v1l-6 1-2-1-1-4z" fill="#A37566"/>
<path transform="translate(389,305)" d="m0 0 2 1-4 8h-2l1-6h2z" fill="#9D7B74"/>
<path transform="translate(396,296)" d="m0 0h1l-1 8-3 5-1-4z" fill="#1D0C11"/>
<path transform="translate(391,263)" d="m0 0 5 1 1 3h2l-1 3-4-1z" fill="#A27364"/>
<path transform="translate(430,258)" d="m0 0 4 5-2 3-4-1z" fill="#AB7563"/>
<path transform="translate(571,254)" d="m0 0h5v2h-2l-1 3-4-1-1-3z" fill="#914A2F"/>
<path transform="translate(370,183)" d="m0 0 2 3 1 2v9l-2-2-1-4z" fill="#723423"/>
<path transform="translate(468,176)" d="m0 0h2l5 10-1 3-3-5-3-6z" fill="#6B2F20"/>
</svg>
